<svg width="21" height="22" viewBox="0 0 21 22" fill="none" xmlns="http://www.w3.org/2000/svg">
<path d="M2.64816 1.65356C2.83745 1.81226 3.01833 1.97643 3.19363 2.15042C3.21775 2.17421 3.24188 2.19801 3.26673 2.22253C3.34554 2.30037 3.4242 2.37836 3.5028 2.45641C3.52987 2.48327 3.55694 2.51013 3.58483 2.53781C3.72789 2.67983 3.8708 2.822 4.01361 2.96427C4.13131 3.08147 4.24931 3.19837 4.36757 3.31501C4.51109 3.45656 4.65411 3.59862 4.79677 3.74105C4.85093 3.79496 4.90527 3.8487 4.95979 3.90225C5.5622 4.49461 5.5622 4.49461 5.61169 4.91115C5.61016 4.95479 5.60863 4.99843 5.60705 5.04339C5.60555 5.10963 5.60555 5.10963 5.60402 5.17722C5.59427 5.29666 5.59427 5.29666 5.56636 5.37758C5.54392 5.46159 5.54392 5.46159 5.59523 5.52772C5.6175 5.54991 5.63976 5.57211 5.6627 5.59498C5.68813 5.62083 5.71356 5.64667 5.73977 5.67331C5.76839 5.70134 5.797 5.72937 5.82649 5.75825C5.85636 5.78831 5.88624 5.81838 5.91702 5.84935C6.01788 5.95059 6.11947 6.05108 6.22106 6.15159C6.29325 6.22376 6.36541 6.29597 6.43752 6.36823C6.5932 6.52401 6.74919 6.67948 6.90546 6.83466C7.13141 7.05904 7.3568 7.28397 7.58205 7.50905C7.94749 7.87418 8.31338 8.23885 8.67956 8.60324C9.03533 8.95726 9.39089 9.3115 9.74615 9.66604C9.76804 9.68788 9.78993 9.70972 9.81248 9.73223C9.92229 9.84181 10.0321 9.95139 10.1419 10.061C11.0532 10.9705 11.9652 11.8792 12.8777 12.7875C12.9236 12.7484 12.9695 12.7092 13.0154 12.67C13.041 12.6482 13.0665 12.6264 13.0929 12.6039C13.1741 12.5332 13.2503 12.4592 13.3252 12.3819C13.3662 12.3401 13.3662 12.3401 13.408 12.2975C13.4637 12.2404 13.5194 12.1831 13.5749 12.1258C13.8392 11.8571 14.0669 11.6382 14.4607 11.6286C14.7687 11.6323 14.967 11.7129 15.1845 11.9305C15.343 12.1324 15.3899 12.382 15.3643 12.635C15.3255 12.8082 15.2494 12.9581 15.1691 13.115C15.1927 13.1384 15.2163 13.1618 15.2405 13.186C15.8151 13.7572 16.3892 14.3288 16.9629 14.9009C17.2403 15.1776 17.5179 15.4541 17.7958 15.7303C18.0382 15.9711 18.2802 16.2123 18.522 16.4537C18.6499 16.5815 18.7779 16.709 18.9063 16.8363C19.0274 16.9563 19.1481 17.0767 19.2685 17.1974C19.3125 17.2414 19.3567 17.2852 19.401 17.3289C19.9335 17.8544 20.2871 18.4107 20.3248 19.1732C20.3051 19.8975 20.0478 20.4706 19.5245 20.9728C19.3551 21.1141 19.1749 21.2113 18.9745 21.3017C18.939 21.3187 18.9035 21.3356 18.8669 21.3531C18.3655 21.5578 17.7097 21.54 17.2058 21.3527C16.6217 21.0902 16.1917 20.6118 15.7457 20.164C15.7037 20.1219 15.6617 20.0799 15.6197 20.0379C15.5074 19.9256 15.3952 19.8131 15.283 19.7006C15.1651 19.5824 15.0471 19.4643 14.9291 19.3462C14.7065 19.1234 14.4839 18.9004 14.2614 18.6774C14.0077 18.4232 13.754 18.1691 13.5002 17.915C12.9789 17.3931 12.4577 16.871 11.9366 16.3488C11.9117 16.3602 11.8868 16.3716 11.8612 16.3833C11.8283 16.3982 11.7954 16.4131 11.7616 16.4284C11.7291 16.4432 11.6966 16.458 11.6631 16.4732C11.4151 16.5761 11.2002 16.5647 10.9545 16.4716C10.7054 16.3326 10.5558 16.1683 10.4635 15.8985C10.4257 15.6042 10.4537 15.3636 10.6272 15.1208C10.9208 14.7519 11.2745 14.4283 11.6092 14.0974C11.4365 13.8914 11.2565 13.6974 11.0666 13.5073C11.0376 13.4781 11.0086 13.4489 10.9787 13.4188C10.8821 13.3217 10.7854 13.2247 10.6886 13.1276C10.6191 13.0578 10.5496 12.9879 10.4801 12.918C10.2722 12.709 10.0641 12.5002 9.85594 12.2915C9.79714 12.2325 9.73835 12.1735 9.67957 12.1145C9.3142 11.748 8.94877 11.3815 8.58315 11.0153C8.49869 10.9307 8.41424 10.8461 8.32979 10.7615C8.29831 10.7299 8.29831 10.7299 8.26619 10.6977C7.92531 10.3562 7.58485 10.0143 7.24456 9.67213C6.895 9.32071 6.54506 8.96967 6.19474 8.619C5.99812 8.42217 5.80168 8.22516 5.60566 8.02773C5.4216 7.84234 5.23704 7.65747 5.05211 7.47296C4.98416 7.405 4.9164 7.33686 4.84882 7.26854C4.75689 7.17566 4.66437 7.08343 4.57165 6.99133C4.54476 6.96386 4.51786 6.93638 4.49014 6.90807C4.46531 6.88366 4.44048 6.85925 4.41489 6.8341C4.39358 6.81273 4.37227 6.79136 4.35032 6.76934C4.28555 6.72 4.28555 6.72 4.20192 6.74274C4.17528 6.75183 4.14865 6.76091 4.12121 6.77028C3.78562 6.79522 3.48743 6.79726 3.21783 6.57848C2.91078 6.30006 2.61796 6.0085 2.32561 5.71479C2.27207 5.66117 2.21853 5.60755 2.16498 5.55393C2.02538 5.41412 1.8859 5.27419 1.74645 5.13423C1.6036 4.99091 1.46063 4.8477 1.31768 4.70448C1.03817 4.42443 0.758787 4.14425 0.479492 3.86398C0.694239 3.60344 0.930604 3.36651 1.16967 3.12862C1.21244 3.0859 1.25521 3.04318 1.29797 3.00044C1.40967 2.88885 1.5215 2.77738 1.63336 2.66593C1.74782 2.55185 1.86217 2.43765 1.97652 2.32345C2.20029 2.10004 2.42418 1.87676 2.64816 1.65356Z" fill="white"/>
<path d="M16.9417 0.984725C17.1112 1.11837 17.2091 1.23024 17.2613 1.44123C17.2407 1.77162 17.0014 1.96942 16.7777 2.18631C16.7154 2.24674 16.6535 2.30767 16.5918 2.36874C16.4607 2.49837 16.3289 2.62731 16.197 2.75623C16.0443 2.90564 15.892 3.05533 15.74 3.2055C15.6795 3.26509 15.6187 3.32426 15.5578 3.38342C15.1564 3.77843 15.1564 3.77843 14.9925 4.30147C15.0047 4.86321 15.6154 5.30159 15.984 5.67166C16.0516 5.73962 16.1186 5.80799 16.1857 5.87638C16.6039 6.31081 16.6039 6.31081 17.1611 6.49654C17.7034 6.48469 18.1136 5.91793 18.4606 5.56034C18.5323 5.48727 18.6041 5.41422 18.6759 5.34121C18.7873 5.22768 18.8986 5.11399 19.0093 4.99975C19.1174 4.88843 19.2262 4.7779 19.3352 4.66748C19.3845 4.61612 19.3845 4.61612 19.4347 4.56373C19.6286 4.36878 19.7615 4.2632 20.0382 4.2324C20.3068 4.2984 20.4567 4.45812 20.611 4.68267C20.9723 5.31229 21.0976 5.94443 20.9205 6.66028C20.8151 6.97759 20.6383 7.2371 20.4474 7.50709C20.4082 7.56393 20.3691 7.6208 20.33 7.6777C19.584 8.75749 19.584 8.75749 19.138 9.10351C19.1071 9.12768 19.0762 9.15184 19.0443 9.17674C18.5855 9.5161 18.0577 9.75564 17.5013 9.88125C17.4648 9.88958 17.4284 9.89792 17.3909 9.9065C17.1089 9.95872 16.8527 9.96271 16.5675 9.94445C15.2767 9.86352 15.2767 9.86352 14.1596 10.4278C13.6862 10.8542 13.2682 11.3442 12.8775 11.8461C12.7563 11.7915 12.6713 11.7318 12.5776 11.6378C12.5516 11.6119 12.5255 11.5859 12.4987 11.5592C12.4706 11.5308 12.4425 11.5024 12.4135 11.4731C12.3686 11.4282 12.3686 11.4282 12.3228 11.3823C12.2238 11.2833 12.1252 11.184 12.0265 11.0846C11.958 11.0159 11.8894 10.9472 11.8208 10.8785C11.6404 10.6977 11.4601 10.5166 11.28 10.3354C11.0961 10.1506 10.912 9.96606 10.7279 9.78147C10.3667 9.41927 10.0057 9.0568 9.64496 8.69417C9.70933 8.55853 9.77852 8.46891 9.88568 8.36284C9.93463 8.31409 9.93463 8.31409 9.98456 8.26435C10.0198 8.22963 10.0551 8.19492 10.0914 8.15915C10.1275 8.12324 10.1636 8.08732 10.2008 8.05032C10.2967 7.95505 10.3927 7.85995 10.4888 7.76495C10.6244 7.63085 10.7598 7.49653 10.895 7.3621C10.9671 7.29055 11.0392 7.21912 11.1114 7.1478C11.1602 7.09943 11.1602 7.09943 11.2099 7.05009C11.2387 7.02168 11.2674 6.99326 11.297 6.96399C11.4076 6.84609 11.4114 6.76208 11.4191 6.60435C11.4212 6.56114 11.4234 6.51792 11.4257 6.47339C11.4279 6.42637 11.4301 6.37934 11.4324 6.33089C11.4375 6.23117 11.4426 6.13144 11.4477 6.03172C11.4555 5.87465 11.4632 5.71757 11.4708 5.56048C11.4783 5.40879 11.486 5.25711 11.4938 5.10544C11.4959 5.05941 11.4981 5.01337 11.5003 4.96595C11.5518 3.97053 11.7949 3.09525 12.4274 2.30851C12.4537 2.27501 12.4799 2.2415 12.507 2.20698C12.7774 1.88354 13.1095 1.65071 13.4504 1.40797C13.4844 1.38342 13.5184 1.35886 13.5535 1.33356C13.6603 1.25648 13.7675 1.17991 13.8749 1.10353C13.9079 1.07982 13.9409 1.05612 13.975 1.03169C14.9234 0.365126 15.9812 0.298451 16.9417 0.984725Z" fill="white"/>
<path d="M7.43535 10.8227C7.55653 10.8773 7.64157 10.937 7.73521 11.031C7.76126 11.0569 7.78731 11.0828 7.81414 11.1096C7.8563 11.1522 7.8563 11.1522 7.89932 11.1957C7.92927 11.2256 7.95923 11.2556 7.99009 11.2864C8.08903 11.3855 8.18768 11.4848 8.28632 11.5841C8.35487 11.6529 8.42345 11.7216 8.49203 11.7903C8.67249 11.9711 8.85271 12.1522 9.03287 12.3333C9.21676 12.5181 9.40089 12.7027 9.585 12.8873C9.94619 13.2495 10.3071 13.612 10.6679 13.9746C10.6152 14.0902 10.5601 14.1746 10.4705 14.2644C10.4468 14.2884 10.4231 14.3124 10.3987 14.337C10.3597 14.3759 10.3597 14.3759 10.3198 14.4156C10.2922 14.4435 10.2645 14.4713 10.236 14.5C10.1431 14.5935 10.0499 14.6867 9.95663 14.7799C9.89001 14.8468 9.8234 14.9137 9.75681 14.9806C9.57565 15.1626 9.39423 15.3442 9.21273 15.5259C9.0993 15.6394 8.98592 15.753 8.87257 15.8666C8.49738 16.2426 8.12202 16.6185 7.74644 16.9942C7.72619 17.0144 7.70595 17.0347 7.68509 17.0556C7.66481 17.0758 7.64454 17.0961 7.62366 17.117C7.29566 17.4451 6.96808 17.7736 6.64068 18.1023C6.30414 18.4401 5.96728 18.7776 5.63013 19.1149C5.441 19.304 5.25199 19.4933 5.06331 19.683C4.88564 19.8615 4.70757 20.0396 4.5292 20.2175C4.46399 20.2826 4.39892 20.3479 4.334 20.4134C3.72784 21.0241 3.17161 21.4717 2.2771 21.4782C1.93669 21.479 1.65007 21.4502 1.33854 21.3017C1.30658 21.2874 1.27461 21.273 1.24168 21.2582C0.642557 20.9596 0.279875 20.4359 0.0652809 19.8196C-0.072779 19.2262 0.00895107 18.5909 0.302798 18.0603C0.614564 17.5867 1.05756 17.1973 1.45691 16.7988C1.52228 16.7334 1.58764 16.668 1.65299 16.6026C1.8294 16.4261 2.00593 16.2497 2.18248 16.0734C2.36735 15.8887 2.55211 15.7039 2.73688 15.5191C3.04669 15.2093 3.35656 14.8996 3.66649 14.5899C3.98553 14.2711 4.30453 13.9523 4.62347 13.6334C4.64318 13.6137 4.66288 13.594 4.68318 13.5737C4.78204 13.4748 4.8809 13.376 4.97975 13.2772C5.79816 12.4589 6.61671 11.6407 7.43535 10.8227ZM1.8091 18.3783C1.60915 18.5674 1.51789 18.7916 1.48687 19.0606C1.51406 19.3326 1.59489 19.5771 1.80143 19.7641C2.01938 19.9276 2.23473 20.0197 2.50886 20.0085C2.76855 19.9645 2.9895 19.8398 3.1594 19.6388C3.305 19.4184 3.36463 19.173 3.33074 18.9103C3.25039 18.6189 3.06292 18.3966 2.8116 18.2343C2.44914 18.1058 2.11345 18.138 1.8091 18.3783Z" fill="white"/>
</svg>
