<svg width="70" height="70" viewBox="0 0 70 70" fill="none" xmlns="http://www.w3.org/2000/svg">
<path d="M55.1833 17.5293C54.6 15.8085 52.9667 14.5835 51.0417 14.5835H18.9583C17.0333 14.5835 15.4292 15.8085 14.8167 17.5293L8.75 35.0002V58.3335C8.75 59.9377 10.0625 61.2502 11.6667 61.2502H14.5833C16.1875 61.2502 17.5 59.9377 17.5 58.3335V55.4168H52.5V58.3335C52.5 59.9377 53.8125 61.2502 55.4167 61.2502H58.3333C59.9375 61.2502 61.25 59.9377 61.25 58.3335V35.0002L55.1833 17.5293ZM18.9583 46.6668C16.5375 46.6668 14.5833 44.7127 14.5833 42.2918C14.5833 39.871 16.5375 37.9168 18.9583 37.9168C21.3792 37.9168 23.3333 39.871 23.3333 42.2918C23.3333 44.7127 21.3792 46.6668 18.9583 46.6668ZM51.0417 46.6668C48.6208 46.6668 46.6667 44.7127 46.6667 42.2918C46.6667 39.871 48.6208 37.9168 51.0417 37.9168C53.4625 37.9168 55.4167 39.871 55.4167 42.2918C55.4167 44.7127 53.4625 46.6668 51.0417 46.6668ZM14.5833 32.0835L18.9583 18.9585H51.0417L55.4167 32.0835H14.5833Z" fill="white" fill-opacity="0.87"/>
</svg>
