<svg width="182" height="140" viewBox="0 0 182 140" fill="none" xmlns="http://www.w3.org/2000/svg">
<path d="M105.528 1.35508C106.762 3.74726 107.935 6.16292 109.082 8.59732C109.895 10.3192 110.724 12.0284 111.594 13.722C112.067 14.6457 112.521 15.5772 112.963 16.5158C113.771 18.2292 114.607 19.9293 115.445 21.6283C115.513 21.767 115.582 21.9056 115.652 22.0485C116.534 23.8354 117.421 25.62 118.327 27.3952C118.947 28.6124 119.558 29.8274 120.056 31.0996C120.346 31.8518 120.346 31.8518 120.817 32.5129C121.234 33.1947 121.344 33.6768 121.403 34.4654C121.546 34.4684 121.69 34.4713 121.838 34.4744C121.908 34.6146 121.977 34.7548 122.049 34.8992C122.371 35.5483 122.693 36.1972 123.015 36.8461C123.124 37.0665 123.233 37.2869 123.346 37.514C123.991 38.8132 124.651 40.1017 125.34 41.3782C125.76 42.2561 126 43.1714 126.215 44.1173C126.358 44.1202 126.502 44.1232 126.65 44.1262C126.728 44.2909 126.806 44.4555 126.886 44.6252C127.178 45.2428 127.471 45.8602 127.764 46.4774C127.951 46.8733 128.139 47.2694 128.326 47.6655C129.045 49.1921 129.045 49.1921 129.834 50.6839C130.226 51.4039 130.519 52.1373 130.826 52.8966C131.077 53.3715 131.336 53.8427 131.601 54.3102C132.221 55.4208 132.791 56.5447 133.328 57.6974C133.889 58.8987 134.484 60.072 135.121 61.2352C135.972 62.796 136.746 64.3839 137.498 65.9941C137.965 66.9909 138.437 67.9855 138.91 68.9798C139.008 69.1875 139.107 69.3951 139.208 69.609C139.873 71.0021 140.565 72.3747 141.29 73.7374C141.918 74.9661 141.918 74.9661 141.903 75.704C142.046 75.707 142.19 75.7099 142.338 75.713C142.401 75.8465 142.464 75.9799 142.529 76.1175C142.822 76.7365 143.115 77.3553 143.408 77.9739C143.513 78.1957 143.618 78.4175 143.727 78.646C144.253 79.751 144.787 80.8458 145.369 81.9223C145.889 82.8947 146.215 83.8549 146.506 84.9174C146.649 84.9203 146.793 84.9233 146.941 84.9263C147.082 85.226 147.082 85.226 147.226 85.5318C148.745 88.7522 150.317 91.9468 152.001 95.0854C152.685 96.3627 153.348 97.6477 153.977 98.9526C154.049 99.0993 154.121 99.246 154.195 99.3971C154.495 100.028 154.682 100.443 154.667 101.151C154.811 101.154 154.955 101.157 155.103 101.16C155.219 101.406 155.334 101.652 155.453 101.905C155.606 102.228 155.759 102.55 155.912 102.873C155.988 103.035 156.064 103.197 156.143 103.364C156.217 103.52 156.291 103.676 156.367 103.837C156.468 104.052 156.468 104.052 156.572 104.272C156.792 104.723 156.792 104.723 157.196 105.329C157.19 105.615 157.184 105.902 157.178 106.197C157.321 106.2 157.465 106.203 157.613 106.206C157.821 106.579 158.026 106.955 158.23 107.331C158.344 107.54 158.459 107.749 158.577 107.964C158.877 108.633 158.991 109.2 159.062 109.926C159.205 109.929 159.349 109.932 159.497 109.935C160.125 111.169 160.125 111.169 160.11 111.902C158.286 111.915 156.463 111.916 154.639 111.902C153.792 111.896 152.946 111.894 152.099 111.901C151.281 111.908 150.463 111.904 149.645 111.893C149.334 111.89 149.023 111.892 148.711 111.897C147.754 111.912 146.874 111.895 145.956 111.611C145.316 110.951 145.004 110.269 144.695 109.414C144.576 109.158 144.458 108.902 144.335 108.638C144.244 108.415 144.152 108.192 144.057 107.962C143.649 107.001 143.217 106.112 142.64 105.241C142.358 104.745 142.161 104.228 141.952 103.697C141.63 102.943 141.225 102.234 140.827 101.518C140.229 100.441 139.716 99.3766 139.261 98.2292C138.948 97.5519 138.618 96.8832 138.288 96.2141C137.798 95.2056 137.798 95.2056 137.808 94.7256C137.664 94.7226 137.521 94.7196 137.373 94.7166C137.283 94.4819 137.194 94.2472 137.101 94.0054C136.909 93.5289 136.735 93.1628 136.433 92.7433C136.082 92.2566 135.89 91.7559 135.67 91.2014C135.374 90.4782 135.035 89.7757 134.698 89.071C134.631 88.9308 134.565 88.7906 134.497 88.6462C133.884 87.3615 133.224 86.1127 132.565 84.8477C128.326 84.7605 124.086 84.6733 119.718 84.5834C119.38 85.4445 119.38 85.4445 119.849 86.1737C119.922 86.2908 119.995 86.4079 120.07 86.5285C120.322 86.9841 120.322 86.9841 120.585 87.651C121.033 88.7818 121.62 89.843 122.188 90.9169C122.847 92.1649 123.501 93.4109 124.101 94.6885C124.44 95.4074 124.8 96.1164 125.157 96.8264C125.243 96.9966 125.329 97.1668 125.417 97.3422C125.969 98.439 126.522 99.5348 127.077 100.63C127.328 101.126 127.578 101.622 127.829 102.117C128.162 102.776 128.496 103.434 128.829 104.092C129.567 105.551 130.296 107.011 130.992 108.49C131.318 109.166 131.696 109.809 132.078 110.455C132.286 110.994 132.182 111.221 132.012 111.758C130.277 111.783 128.542 111.793 126.807 111.786C126.001 111.783 125.196 111.785 124.39 111.798C123.612 111.81 122.834 111.81 122.056 111.8C121.759 111.799 121.463 111.802 121.167 111.81C120.225 111.834 119.399 111.81 118.511 111.48C117.811 110.678 117.428 109.829 117.041 108.845C116.886 108.528 116.729 108.211 116.568 107.897C116.438 107.619 116.308 107.341 116.179 107.063C116.108 106.913 116.038 106.763 115.965 106.608C115.766 106.184 115.568 105.761 115.37 105.337C114.641 103.778 113.875 102.238 113.101 100.701C112.281 99.0733 111.469 97.4418 110.659 95.8096C109.9 94.2839 109.135 92.7619 108.367 91.2409C107.73 89.9727 107.115 88.6946 106.522 87.4054C106.341 87.0186 106.151 86.6363 105.96 86.2544C105.794 85.9083 105.794 85.9083 105.625 85.5552C105.163 84.8557 105.163 84.8557 104.327 84.7876C104 84.7887 103.674 84.7969 103.348 84.8106C103.166 84.8126 102.984 84.8146 102.797 84.8166C102.399 84.821 102.001 84.828 101.603 84.8371C100.762 84.8535 99.9217 84.8469 99.0805 84.8408C98.363 84.8358 97.6456 84.8337 96.9282 84.8321C89.4976 84.8139 82.0679 84.7332 74.6379 84.6466C74.3681 84.6435 74.0983 84.6403 73.8203 84.6371C70.4585 84.5979 67.0967 84.558 63.7349 84.5173C63.6877 84.6508 63.6404 84.7842 63.5917 84.9217C63.5296 85.0966 63.4674 85.2715 63.4033 85.4517C63.3418 85.6252 63.2802 85.7986 63.2168 85.9773C63.0288 86.4919 62.8177 86.9871 62.5814 87.4814C62.4994 87.6536 62.4173 87.8258 62.3328 88.0033C62.247 88.1805 62.1612 88.3578 62.0728 88.5404C61.9822 88.7293 61.8915 88.9182 61.7981 89.1128C61.1725 90.4078 60.5119 91.6781 59.8311 92.9451C59.2837 93.9823 58.7862 95.0435 58.2821 96.102C57.5244 97.6929 56.7446 99.2662 55.9059 100.816C55.4428 101.675 55.0333 102.547 54.6322 103.436C54.2576 104.205 53.8715 104.968 53.4873 105.732C52.8593 106.986 52.256 108.245 51.7426 109.55C51.643 109.804 51.5434 110.057 51.4409 110.318C51.2972 110.315 51.1534 110.312 51.0054 110.309C50.8528 110.736 50.7003 111.162 50.5431 111.602C46.2317 111.513 41.9203 111.425 37.4783 111.333C37.7536 109.872 37.7536 109.872 38.0887 109.208C38.1619 109.061 38.235 108.915 38.3104 108.764C38.4281 108.535 38.4281 108.535 38.5481 108.302C38.629 108.142 38.7099 107.982 38.7932 107.817C39.4174 106.592 40.0933 105.404 40.7808 104.214C41.1686 103.509 41.475 102.795 41.7758 102.051C42.3317 100.758 42.9897 99.5106 43.6224 98.2535C43.9843 97.5313 44.3392 96.8056 44.6948 96.0803C45.2171 95.0176 45.7587 93.9671 46.3162 92.9223C46.6916 92.2027 47.0386 91.4704 47.3873 90.7376C47.8768 89.7223 48.3822 88.715 48.888 87.7077C49.2386 87.0069 49.5818 86.3052 49.903 85.5906C50.1564 85.0333 50.4222 84.5004 50.7168 83.9646C51.2585 82.95 51.7506 81.9164 52.2372 80.8749C53.057 79.1204 53.9039 77.3815 54.7681 75.6484C54.9173 75.3487 55.0664 75.049 55.2155 74.7493C55.4465 74.285 55.6775 73.8207 55.9087 73.3565C56.4018 72.3664 56.8926 71.3751 57.3816 70.383C57.9472 69.2354 58.5157 68.0894 59.0861 66.9442C59.6655 65.7809 60.2437 64.6171 60.819 63.4518C60.8839 63.3205 60.9487 63.1892 61.0155 63.0538C61.555 61.9598 62.0884 60.8629 62.6197 59.7649C62.8815 59.2386 63.1499 58.718 63.4248 58.1985C63.506 58.045 63.5872 57.8915 63.6708 57.7334C63.7324 57.6171 63.794 57.5008 63.8575 57.381C66.777 57.2418 69.678 57.2567 72.5993 57.3301C73.0221 57.3399 73.4448 57.3496 73.8675 57.3592C74.8873 57.3825 75.907 57.4072 76.9268 57.4327C76.9243 58.3272 76.8954 58.8956 76.445 59.6753C76.3421 59.8596 76.2391 60.0439 76.1331 60.2337C76.0122 60.4479 75.8912 60.662 75.7666 60.8826C75.4656 61.4354 75.1695 61.9908 74.8746 62.5469C74.7965 62.6939 74.7184 62.841 74.638 62.9924C74.0133 64.1797 73.458 65.3873 72.9147 66.6139C72.484 67.5478 71.9973 68.446 71.497 69.3444C71.2288 69.8984 71.1064 70.3889 70.9841 70.9884C71.2391 70.987 71.2391 70.987 71.4992 70.9855C73.7784 70.9725 76.0577 70.9608 78.337 70.9497C78.6206 70.9483 78.6206 70.9483 78.91 70.9469C84.0214 70.9221 89.1327 70.9096 94.2442 70.9148C94.4876 70.9151 94.7309 70.9153 94.9817 70.9156C97.3879 70.918 99.7942 70.9213 102.2 70.9265C103.105 70.9283 104.009 70.9297 104.913 70.931C105.33 70.9317 105.746 70.9326 106.163 70.9338C108.6 70.9408 111.033 70.9148 113.469 70.8541C114.943 70.8175 116.416 70.7965 117.891 70.7991C118.106 70.7991 118.321 70.799 118.543 70.7989C119.206 70.7987 119.87 70.7994 120.533 70.8001C120.993 70.8001 121.453 70.8001 121.913 70.8C123.018 70.8 124.124 70.8006 125.23 70.8017C124.712 69.1813 124.098 67.6509 123.352 66.1223C123.261 65.9332 123.171 65.7441 123.077 65.5493C122.644 64.65 122.188 63.7782 121.689 62.9129C121.345 62.2176 121.02 61.5133 120.692 60.8103C120.284 59.9428 119.856 59.0891 119.41 58.2405C118.759 56.9989 118.157 55.7376 117.56 54.4691C116.633 52.5087 115.681 50.5629 114.701 48.6281C114.305 47.8454 113.914 47.0601 113.526 46.2733C112.239 43.6436 112.239 43.6436 110.838 41.0735C110.184 39.9368 109.717 38.7555 109.24 37.5363C108.895 36.713 108.473 35.9759 108.014 35.2119C107.612 34.5048 107.263 33.7773 106.919 33.0412C106.194 31.4961 105.445 29.9641 104.685 28.4359C104.577 28.2183 104.469 28.0007 104.358 27.7764C104.204 27.4671 104.204 27.4671 104.047 27.1515C103.956 26.9682 103.865 26.7849 103.771 26.5961C103.484 26.0427 103.175 25.5053 102.864 24.9654C102.647 24.5196 102.434 24.0717 102.225 23.6224C101.6 22.2987 100.958 20.9847 100.304 19.6749C100.171 19.406 100.171 19.406 100.036 19.1316C99.9506 18.962 99.8656 18.7923 99.7781 18.6176C99.703 18.4671 99.628 18.3166 99.5507 18.1616C99.3129 17.713 99.3129 17.713 98.9809 17.2742C98.6383 16.7959 98.4387 16.3022 98.2271 15.756C97.2616 13.3119 96.0973 10.9294 94.9095 8.58627C94.8242 8.41788 94.739 8.2495 94.6511 8.07602C94.5661 7.90813 94.4811 7.74025 94.3935 7.56727C93.8569 6.50714 93.3253 5.44486 92.8041 4.37713C92.7223 4.21406 92.6406 4.05098 92.5563 3.88296C92.4823 3.72994 92.4082 3.57691 92.3319 3.41926C92.2664 3.28613 92.2009 3.15299 92.1333 3.01583C91.9642 2.4972 91.9982 2.05305 92.0189 1.5114C93.6978 1.48371 95.3768 1.45645 97.0557 1.42949C97.6266 1.42028 98.1975 1.41096 98.7684 1.40154C99.59 1.38801 100.412 1.37483 101.233 1.36172C101.615 1.35532 101.615 1.35532 102.004 1.34879C103.18 1.33035 104.352 1.31905 105.528 1.35508Z" fill="white"/>
<path d="M73.3645 1.25967C73.8071 1.26987 74.2496 1.27997 74.6921 1.28997C75.7583 1.31426 76.8245 1.33994 77.8907 1.36642C77.974 1.54456 78.0572 1.72269 78.143 1.90622C78.2538 2.14175 78.3646 2.37729 78.4787 2.61996C78.5878 2.85265 78.697 3.08533 78.8094 3.32507C79.1316 4.00484 79.1316 4.00484 79.4949 4.60534C79.8319 5.21378 79.9033 5.74203 79.9689 6.4295C80.1129 6.43246 80.2568 6.43543 80.4052 6.43848C80.4809 6.59938 80.5567 6.76028 80.6348 6.92606C80.9221 7.53547 81.2098 8.14467 81.4977 8.75375C81.6811 9.14203 81.8641 9.53053 82.047 9.91904C82.6997 11.2988 83.3717 12.6638 84.0809 14.0153C84.5898 14.9918 85.0754 15.9798 85.5626 16.9672C85.7816 17.4103 86.0007 17.8533 86.2198 18.2964C86.3311 18.5217 86.4425 18.7471 86.5573 18.9793C86.8986 19.6692 87.2408 20.3585 87.5834 21.0477C87.7503 21.3836 87.7503 21.3836 87.9206 21.7263C88.1317 22.1512 88.343 22.5761 88.5544 23.0008C89.0271 23.9529 89.4929 24.9071 89.9445 25.8694C90.426 26.8893 90.9475 27.8833 91.4827 28.8759C92.2438 30.3012 92.9601 31.7362 93.6434 33.2005C94.1556 34.2919 94.7016 35.3664 95.2434 36.4433C95.8984 37.7469 96.5433 39.0552 97.1852 40.3653C98.3495 42.7409 99.5316 45.1043 100.77 47.4424C101.305 48.4596 101.764 49.4747 102.194 50.5417C102.521 51.2023 102.868 51.8511 103.218 52.5C103.755 53.5052 103.755 53.5052 104.019 54.0058C104.21 54.3582 104.409 54.7067 104.612 55.0518C104.762 55.3127 104.762 55.3127 104.916 55.5788C105.009 55.735 105.102 55.8911 105.198 56.052C105.246 56.1998 105.295 56.3477 105.345 56.5C105.195 56.785 105.045 57.0701 104.891 57.3637C100.5 57.2734 96.1085 57.1831 91.5843 57.09C89.7079 53.643 89.7079 53.643 89.1173 52.36C88.4145 50.852 87.6848 49.3584 86.9456 47.868C86.8427 47.6602 86.7399 47.4524 86.6339 47.2383C86.1193 46.2023 85.5968 45.1713 85.0614 44.1458C84.5494 43.1631 84.0613 42.1724 83.5916 41.1689C83.5245 41.0264 83.4574 40.8839 83.3883 40.7371C83.1122 40.1511 82.8368 39.5648 82.5613 38.9785C82.2127 38.2395 81.8616 37.5056 81.4722 36.787C80.3234 34.6322 79.2372 32.4497 78.1991 30.2397C77.6618 29.1005 77.1018 27.9739 76.5345 26.8494C75.6651 25.125 74.8328 23.3849 74.0099 21.6379C73.1134 19.7399 72.1779 17.8624 71.2299 15.9896C71.097 15.725 70.968 15.4585 70.8411 15.191C70.6971 15.1881 70.5531 15.1851 70.4048 15.182C69.8528 16.3108 69.3073 17.4368 68.8341 18.6012C68.4005 19.6462 67.8744 20.635 67.3401 21.6305C66.9608 22.3428 66.6141 23.0531 66.3129 23.8016C65.8564 24.9251 65.2887 25.9803 64.719 27.0492C64.1195 28.1756 63.5512 29.3138 62.9987 30.4641C62.7519 30.9757 62.5026 31.4853 62.2494 31.9937C61.5788 33.3414 60.9348 34.6897 60.3615 36.0825C60.0561 36.7815 59.6915 37.444 59.3299 38.1153C58.9361 38.8802 58.5796 39.6594 58.2233 40.4424C57.6421 41.7181 57.025 42.9648 56.3558 44.1973C55.9961 44.8881 55.6806 45.5939 55.3611 46.3042C55.1118 46.8233 54.8609 47.3411 54.6063 47.8575C54.5375 47.9973 54.4687 48.1372 54.3979 48.2813C53.8562 49.377 53.2919 50.4595 52.7131 51.5361C52.4269 52.0926 52.1682 52.6568 51.913 53.228C51.4472 54.239 50.9301 55.2263 50.4251 56.2182C50.0249 57.012 49.6441 57.7969 49.3312 58.6295C49.0153 59.4539 48.5845 60.1785 48.131 60.9339C47.6749 61.7325 47.3222 62.571 46.9617 63.4161C46.3072 64.9191 45.6083 66.3729 44.8228 67.8126C44.5014 68.4225 44.1993 69.0343 43.9034 69.6567C43.1129 71.3176 42.2679 72.9506 41.427 74.5864C40.7198 75.972 40.0528 77.364 39.4416 78.7947C39.1856 79.3692 38.9031 79.9208 38.6044 80.4743C38.2319 81.1654 37.9035 81.8552 37.6063 82.5819C37.1652 83.6547 36.6312 84.6656 36.0838 85.6874C35.8392 86.1518 35.611 86.6132 35.3993 87.093C35.0927 87.7783 34.7537 88.4337 34.3957 89.0931C34.1652 89.5319 34.1652 89.5319 33.9611 90.0374C33.5944 90.8927 33.1436 91.7004 32.7038 92.52C32.4081 93.0935 32.1366 93.6716 31.8737 94.2606C31.4146 95.2699 30.9259 96.2654 30.4435 97.2636C30.3365 97.4861 30.2296 97.7086 30.1193 97.9378C29.4488 99.3261 28.7538 100.698 28.0262 102.057C27.9514 102.197 27.8766 102.336 27.7996 102.48C27.6967 102.672 27.6967 102.672 27.5918 102.868C26.9006 104.162 26.2667 105.439 25.746 106.812C25.5374 107.273 25.3202 107.729 25.1023 108.185C24.6375 109.174 24.1963 110.173 23.7511 111.171C23.4614 111.785 23.4614 111.785 23.2387 111.999C22.8233 112.011 22.4075 112.008 21.992 111.998C21.7256 111.993 21.4592 111.987 21.1847 111.982C20.8919 111.974 20.599 111.967 20.3062 111.96C20.0082 111.953 19.7101 111.947 19.4121 111.941C18.6264 111.924 17.8407 111.905 17.055 111.887C16.2538 111.868 15.4526 111.851 14.6513 111.833C13.0782 111.798 11.5052 111.762 9.93212 111.725C10.1263 110.96 10.4187 110.321 10.7819 109.618C10.9689 109.254 10.9689 109.254 11.1596 108.882C11.2583 108.691 11.2583 108.691 11.3589 108.496C12.5375 106.211 13.6777 103.914 14.724 101.565C14.868 101.568 15.012 101.571 15.1603 101.574C15.1802 101.401 15.2001 101.229 15.2205 101.051C15.4655 100.015 15.9178 99.1451 16.4027 98.2026C16.4936 98.0217 16.5845 97.8408 16.6782 97.6545C17.0393 96.9421 17.4008 96.2479 17.8293 95.5734C18.2776 94.8499 18.5249 94.0708 18.8092 93.2718C19.0526 92.7051 19.3417 92.3233 19.7251 91.8455C19.9433 91.3992 19.9433 91.3992 20.1262 90.9124C21.0213 88.7302 22.0978 86.6513 23.2914 84.6194C23.6875 83.8992 23.9919 83.1546 24.2996 82.3934C24.4927 81.9489 24.7064 81.5577 24.9646 81.1486C25.3136 80.5933 25.573 80.042 25.8182 79.4336C26.2321 78.4203 26.7261 77.466 27.2425 76.5026C27.837 75.3933 28.3714 74.2892 28.8414 73.1206C29.198 72.3203 29.6551 71.5816 30.0991 70.8273C30.4944 70.1162 30.8062 69.3898 31.1024 68.6328C31.3627 68.031 31.6685 67.4604 31.9767 66.8821C32.5079 65.851 32.9921 64.797 33.4846 63.747C34.5765 61.42 35.686 59.1033 36.8395 56.8061C37.1172 56.2497 37.3898 55.6908 37.6627 55.132C38.21 54.0115 38.7696 52.9 39.3579 51.8002C39.7451 51.0715 40.1022 50.3488 40.4128 49.5846C41.0822 47.9503 41.9128 46.389 42.7072 44.8131C43.0778 44.0739 43.4404 43.3309 43.803 42.5877C44.3722 41.4222 44.9677 40.2734 45.5884 39.1345C45.8657 38.5792 46.1096 38.0269 46.3475 37.4543C46.8376 36.2828 47.3984 35.1549 47.9756 34.0243C48.5251 32.9434 49.0738 31.8639 49.5839 30.7637C49.868 30.1513 50.1652 29.5506 50.483 28.955C50.9586 28.0626 51.3826 27.1501 51.8049 26.2316C52.3766 24.9983 52.9688 23.7828 53.6122 22.5854C54.0452 21.7763 54.4511 20.9776 54.7948 20.1268C55.2566 18.9862 55.8399 17.9187 56.4199 16.8353C56.9265 15.8823 57.3714 14.9245 57.7748 13.9229C58.145 13.0697 58.5988 12.2613 59.0381 11.4422C59.3292 10.877 59.5834 10.3139 59.8236 9.72576C60.2533 8.6735 60.7815 7.68793 61.3182 6.68702C61.6945 5.95655 62.0054 5.21157 62.3156 4.45145C62.7903 3.36919 63.3651 2.33721 63.9252 1.29741C67.077 1.17051 70.2116 1.18094 73.3645 1.25967Z" fill="white"/>
<path d="M0.91 132.423L6.58 119.823H8.884L14.572 132.423H12.124L7.246 121.065H8.182L3.322 132.423H0.91ZM3.52 129.507L4.15 127.671H10.954L11.584 129.507H3.52ZM20.0804 132.603C19.0964 132.603 18.1544 132.465 17.2544 132.189C16.3544 131.901 15.6404 131.535 15.1124 131.091L15.9224 129.273C16.4264 129.669 17.0504 129.999 17.7944 130.263C18.5384 130.527 19.3004 130.659 20.0804 130.659C20.7404 130.659 21.2744 130.587 21.6824 130.443C22.0904 130.299 22.3904 130.107 22.5824 129.867C22.7744 129.615 22.8704 129.333 22.8704 129.021C22.8704 128.637 22.7324 128.331 22.4564 128.103C22.1804 127.863 21.8204 127.677 21.3764 127.545C20.9444 127.401 20.4584 127.269 19.9184 127.149C19.3904 127.029 18.8564 126.891 18.3164 126.735C17.7884 126.567 17.3024 126.357 16.8584 126.105C16.4264 125.841 16.0724 125.493 15.7964 125.061C15.5204 124.629 15.3824 124.077 15.3824 123.405C15.3824 122.721 15.5624 122.097 15.9224 121.533C16.2944 120.957 16.8524 120.501 17.5964 120.165C18.3524 119.817 19.3064 119.643 20.4584 119.643C21.2144 119.643 21.9644 119.739 22.7084 119.931C23.4524 120.123 24.1004 120.399 24.6524 120.759L23.9144 122.577C23.3504 122.241 22.7684 121.995 22.1684 121.839C21.5684 121.671 20.9924 121.587 20.4404 121.587C19.7924 121.587 19.2644 121.665 18.8564 121.821C18.4604 121.977 18.1664 122.181 17.9744 122.433C17.7944 122.685 17.7044 122.973 17.7044 123.297C17.7044 123.681 17.8364 123.993 18.1004 124.233C18.3764 124.461 18.7304 124.641 19.1624 124.773C19.6064 124.905 20.0984 125.037 20.6384 125.169C21.1784 125.289 21.7124 125.427 22.2404 125.583C22.7804 125.739 23.2664 125.943 23.6984 126.195C24.1424 126.447 24.4964 126.789 24.7604 127.221C25.0364 127.653 25.1744 128.199 25.1744 128.859C25.1744 129.531 24.9884 130.155 24.6164 130.731C24.2564 131.295 23.6984 131.751 22.9424 132.099C22.1864 132.435 21.2324 132.603 20.0804 132.603ZM29.5827 129.453L29.4567 126.681L36.0627 119.823H38.6907L33.2007 125.655L31.9047 127.077L29.5827 129.453ZM27.4947 132.423V119.823H29.8347V132.423H27.4947ZM36.2787 132.423L31.4547 126.681L33.0027 124.971L39.0147 132.423H36.2787ZM38.2811 132.423L43.9511 119.823H46.2551L51.9431 132.423H49.4951L44.6171 121.065H45.5531L40.6931 132.423H38.2811ZM40.8911 129.507L41.5211 127.671H48.3251L48.9551 129.507H40.8911ZM53.5455 132.423V119.823H58.7295C59.8455 119.823 60.7995 120.003 61.5915 120.363C62.3955 120.723 63.0135 121.239 63.4455 121.911C63.8775 122.583 64.0935 123.381 64.0935 124.305C64.0935 125.229 63.8775 126.027 63.4455 126.699C63.0135 127.359 62.3955 127.869 61.5915 128.229C60.7995 128.577 59.8455 128.751 58.7295 128.751H54.8415L55.8855 127.689V132.423H53.5455ZM61.7895 132.423L58.6035 127.851H61.1055L64.3095 132.423H61.7895ZM55.8855 127.941L54.8415 126.825H58.6215C59.6535 126.825 60.4275 126.603 60.9435 126.159C61.4715 125.715 61.7355 125.097 61.7355 124.305C61.7355 123.501 61.4715 122.883 60.9435 122.451C60.4275 122.019 59.6535 121.803 58.6215 121.803H54.8415L55.8855 120.651V127.941Z" fill="white"/>
<path d="M116.835 130.995L122.763 118.514L125.066 118.561L130.494 131.276L128.046 131.225L123.403 119.769L124.339 119.789L119.246 131.044L116.835 130.995ZM119.504 128.133L120.172 126.31L126.974 126.45L127.567 128.299L119.504 128.133ZM137.246 131.594C135.518 131.559 134.172 131.045 133.208 130.053C132.257 129.061 131.8 127.648 131.837 125.812L131.984 118.704L134.323 118.752L134.179 125.77C134.152 127.066 134.409 128.013 134.948 128.613C135.5 129.212 136.286 129.522 137.306 129.543C138.326 129.564 139.117 129.286 139.681 128.71C140.245 128.133 140.541 127.197 140.567 125.902L140.712 118.883L143.015 118.93L142.869 126.039C142.831 127.875 142.31 129.268 141.307 130.22C140.315 131.172 138.961 131.63 137.246 131.594ZM148.359 131.643L148.578 121.025L144.403 120.939L144.444 118.96L155.133 119.18L155.093 121.159L150.917 121.073L150.699 131.691L148.359 131.643ZM162.353 132.111C161.369 132.091 160.467 131.91 159.646 131.569C158.825 131.228 158.114 130.763 157.514 130.175C156.914 129.575 156.454 128.881 156.134 128.094C155.815 127.295 155.665 126.428 155.684 125.492C155.703 124.557 155.889 123.702 156.241 122.929C156.593 122.144 157.081 121.47 157.705 120.907C158.329 120.332 159.058 119.891 159.892 119.584C160.727 119.277 161.63 119.133 162.602 119.153C163.586 119.174 164.482 119.354 165.291 119.695C166.112 120.036 166.823 120.506 167.423 121.107C168.023 121.695 168.482 122.389 168.802 123.188C169.122 123.974 169.272 124.836 169.253 125.772C169.234 126.707 169.048 127.568 168.696 128.353C168.344 129.138 167.856 129.812 167.232 130.375C166.608 130.938 165.879 131.373 165.045 131.68C164.222 131.987 163.325 132.131 162.353 132.111ZM162.377 130.059C163.013 130.072 163.603 129.976 164.148 129.771C164.692 129.567 165.166 129.27 165.57 128.882C165.975 128.483 166.29 128.021 166.517 127.498C166.756 126.962 166.882 126.371 166.896 125.723C166.909 125.075 166.807 124.485 166.59 123.952C166.385 123.408 166.089 122.934 165.701 122.53C165.313 122.114 164.852 121.792 164.316 121.565C163.781 121.338 163.195 121.218 162.56 121.205C161.924 121.192 161.334 121.288 160.789 121.493C160.257 121.698 159.783 122 159.366 122.399C158.962 122.787 158.641 123.249 158.402 123.784C158.175 124.307 158.055 124.893 158.041 125.541C158.028 126.177 158.124 126.767 158.329 127.311C158.546 127.856 158.848 128.336 159.236 128.752C159.623 129.156 160.085 129.472 160.62 129.699C161.156 129.926 161.742 130.046 162.377 130.059Z" fill="white"/>
</svg>
