<svg width="52" height="52" viewBox="0 0 52 52" fill="none" xmlns="http://www.w3.org/2000/svg">
<path d="M6.55728 2.85645C7.026 3.2494 7.4739 3.65593 7.90798 4.08674C7.96771 4.14567 8.02745 4.2046 8.08899 4.26532C8.28415 4.45805 8.4789 4.65119 8.67355 4.84444C8.74058 4.91096 8.80761 4.97747 8.87668 5.04601C9.23091 5.39768 9.58478 5.74972 9.93841 6.10201C10.2299 6.39222 10.522 6.68168 10.8149 6.97049C11.1703 7.32101 11.5244 7.67277 11.8777 8.02545C12.0118 8.15894 12.1463 8.29201 12.2813 8.42462C13.773 9.89143 13.773 9.89143 13.8956 10.9229C13.8918 11.0309 13.888 11.139 13.8841 11.2503C13.8804 11.4143 13.8804 11.4143 13.8766 11.5817C13.8524 11.8775 13.8524 11.8775 13.7833 12.0778C13.7277 12.2858 13.7277 12.2858 13.8548 12.4496C13.9099 12.5045 13.9651 12.5595 14.0219 12.6161C14.0848 12.6801 14.1478 12.7441 14.2127 12.8101C14.2836 12.8795 14.3544 12.9489 14.4274 13.0204C14.5014 13.0949 14.5754 13.1693 14.6516 13.246C14.9014 13.4967 15.1529 13.7455 15.4045 13.9944C15.5832 14.1731 15.7619 14.3519 15.9405 14.5309C16.326 14.9166 16.7122 15.3016 17.0992 15.6858C17.6587 16.2414 18.2168 16.7984 18.7745 17.3557C19.6794 18.2599 20.5855 19.1629 21.4922 20.0652C22.3731 20.9418 23.2536 21.819 24.1333 22.6968C24.1875 22.7509 24.2417 22.805 24.2975 22.8608C24.5694 23.1321 24.8413 23.4034 25.1132 23.6748C27.3697 25.9269 29.6281 28.1772 31.8876 30.4263C32.0013 30.3294 32.115 30.2324 32.2286 30.1353C32.2919 30.0813 32.3552 30.0273 32.4204 29.9716C32.6215 29.7966 32.8102 29.6131 32.9958 29.4218C33.0973 29.3184 33.0973 29.3184 33.2008 29.2129C33.3387 29.0714 33.4765 28.9296 33.614 28.7877C34.2685 28.1222 34.8322 27.5803 35.8075 27.5565C36.5701 27.5657 37.061 27.7652 37.5996 28.304C37.9921 28.804 38.1083 29.4221 38.0448 30.0485C37.9487 30.4775 37.7604 30.8486 37.5616 31.2371C37.6199 31.2951 37.6783 31.3531 37.7384 31.4129C39.1612 32.8273 40.5828 34.2427 42.0032 35.6595C42.6902 36.3446 43.3775 37.0293 44.0657 37.7131C44.6659 38.3095 45.2653 38.9065 45.8639 39.5045C46.1806 39.8207 46.4976 40.1367 46.8155 40.4517C47.1154 40.7489 47.4143 41.0471 47.7124 41.346C47.8214 41.4549 47.9307 41.5635 48.0404 41.6716C49.359 42.9728 50.2346 44.3502 50.3281 46.2384C50.2793 48.032 49.642 49.4511 48.3464 50.6946C47.9269 51.0444 47.4806 51.2851 46.9845 51.5091C46.8966 51.551 46.8087 51.5929 46.7181 51.6362C45.4765 52.1432 43.8524 52.099 42.6047 51.6354C41.1583 50.9853 40.0936 49.8007 38.9893 48.6917C38.8853 48.5877 38.7813 48.4837 38.6773 48.3797C38.3991 48.1014 38.1213 47.8229 37.8435 47.5443C37.5516 47.2516 37.2594 46.9593 36.9673 46.6669C36.4159 46.115 35.8649 45.5629 35.3139 45.0107C34.6858 44.3812 34.0574 43.7521 33.429 43.1229C32.1381 41.8305 30.8475 40.5376 29.5572 39.2446C29.4956 39.2728 29.4339 39.301 29.3704 39.3301C29.289 39.367 29.2077 39.4038 29.1238 39.4417C29.0434 39.4783 28.9629 39.5149 28.88 39.5526C28.2658 39.8074 27.7338 39.7792 27.1255 39.5486C26.5086 39.2045 26.1381 38.7977 25.9096 38.1296C25.816 37.4008 25.8852 36.8051 26.3149 36.2038C27.042 35.2905 27.9176 34.489 28.7466 33.6698C28.319 33.1596 27.8732 32.6794 27.4029 32.2085C27.3311 32.1363 27.2593 32.064 27.1853 31.9895C26.9461 31.7489 26.7066 31.5087 26.4671 31.2684C26.2949 31.0954 26.1228 30.9224 25.9507 30.7493C25.4358 30.2319 24.9205 29.7148 24.4051 29.1979C24.2595 29.0519 24.114 28.9059 23.9684 28.7598C23.0637 27.8522 22.1588 26.9448 21.2534 26.0378C21.0443 25.8283 20.8352 25.6188 20.6261 25.4093C20.5481 25.3312 20.5481 25.3312 20.4686 25.2515C19.6245 24.4058 18.7815 23.5591 17.9388 22.7119C17.0733 21.8417 16.2068 20.9725 15.3393 20.1042C14.8524 19.6168 14.366 19.129 13.8806 18.6401C13.4249 18.181 12.9678 17.7233 12.5099 17.2664C12.3417 17.0981 12.1739 16.9294 12.0065 16.7602C11.7789 16.5302 11.5498 16.3018 11.3202 16.0738C11.2536 16.0057 11.187 15.9377 11.1184 15.8676C11.0569 15.8072 10.9954 15.7467 10.9321 15.6844C10.8793 15.6315 10.8265 15.5786 10.7722 15.5241C10.6118 15.4019 10.6118 15.4019 10.4047 15.4582C10.3387 15.4807 10.2728 15.5032 10.2048 15.5264C9.37385 15.5882 8.63548 15.5932 7.96789 15.0515C7.2076 14.3621 6.4825 13.6401 5.75858 12.9128C5.62603 12.78 5.49345 12.6473 5.36085 12.5145C5.01517 12.1683 4.66979 11.8218 4.32449 11.4752C3.97076 11.1203 3.61675 10.7657 3.26276 10.4111C2.57064 9.71764 1.87884 9.02386 1.18726 8.32987C1.71901 7.6847 2.30429 7.09802 2.89626 6.50896C3.00218 6.40318 3.10808 6.29739 3.21396 6.19157C3.49056 5.91525 3.76748 5.63922 4.04445 5.36326C4.32788 5.08077 4.61102 4.79798 4.89419 4.51522C5.44827 3.96201 6.00267 3.40912 6.55728 2.85645Z" fill="white"/>
<path d="M41.9508 1.20027C42.3706 1.5312 42.613 1.80821 42.7424 2.33067C42.6913 3.14878 42.0988 3.63855 41.5448 4.17563C41.3905 4.32527 41.2374 4.47614 41.0846 4.62736C40.7598 4.94835 40.4334 5.26763 40.1069 5.58685C39.7289 5.95681 39.3516 6.32748 38.9754 6.69934C38.8256 6.84688 38.6749 6.99341 38.524 7.1399C37.5301 8.11802 37.5301 8.11802 37.1242 9.41317C37.1546 10.8041 38.6668 11.8897 39.5796 12.806C39.7468 12.9743 39.9129 13.1436 40.079 13.3129C41.1145 14.3887 41.1145 14.3887 42.4943 14.8486C43.8371 14.8192 44.8527 13.4158 45.712 12.5304C45.8896 12.3494 46.0673 12.1686 46.2451 11.9877C46.5211 11.7066 46.7966 11.4251 47.0708 11.1423C47.3384 10.8666 47.6079 10.5929 47.8777 10.3195C47.9997 10.1923 47.9997 10.1923 48.1241 10.0626C48.6043 9.57983 48.9332 9.3184 49.6184 9.24213C50.2835 9.40555 50.6548 9.80105 51.0369 10.3571C51.9313 11.9162 52.2416 13.4814 51.8031 15.254C51.5422 16.0397 51.1045 16.6823 50.6316 17.3509C50.5347 17.4916 50.4378 17.6325 50.3411 17.7734C48.4938 20.4471 48.4938 20.4471 47.3893 21.3039C47.3128 21.3638 47.2363 21.4236 47.1574 21.4853C46.0214 22.3256 44.7144 22.9187 43.3365 23.2298C43.2463 23.2504 43.1562 23.271 43.0633 23.2923C42.365 23.4216 41.7306 23.4315 41.0244 23.3863C37.828 23.1859 37.828 23.1859 35.0619 24.583C33.8897 25.639 32.8547 26.8522 31.8872 28.095C31.5871 27.9598 31.3766 27.8121 31.1447 27.5793C31.0802 27.5151 31.0157 27.4508 30.9492 27.3846C30.8796 27.3143 30.81 27.2439 30.7383 27.1714C30.6271 27.0602 30.6271 27.0602 30.5135 26.9467C30.2686 26.7015 30.0243 26.4555 29.78 26.2096C29.6103 26.0394 29.4405 25.8692 29.2706 25.6991C28.8238 25.2513 28.3775 24.8029 27.9314 24.3544C27.4761 23.8968 27.0201 23.4398 26.5643 22.9827C25.6699 22.0858 24.7761 21.1883 23.8828 20.2903C24.0422 19.9544 24.2135 19.7325 24.4789 19.4699C24.6001 19.3492 24.6001 19.3492 24.7237 19.226C24.811 19.14 24.8983 19.0541 24.9882 18.9655C25.0777 18.8766 25.1671 18.7877 25.2592 18.696C25.4965 18.4601 25.7343 18.2246 25.9722 17.9894C26.308 17.6573 26.6433 17.3247 26.9783 16.9919C27.1566 16.8147 27.3352 16.6378 27.5141 16.4612C27.6348 16.3415 27.6348 16.3415 27.758 16.2193C27.8291 16.1489 27.9003 16.0786 27.9736 16.0061C28.2475 15.7141 28.2569 15.5061 28.2758 15.1155C28.2812 15.0085 28.2867 14.9015 28.2923 14.7913C28.2977 14.6748 28.3032 14.5584 28.3089 14.4384C28.3215 14.1915 28.3341 13.9445 28.3467 13.6976C28.366 13.3087 28.3851 12.9197 28.404 12.5307C28.4224 12.1551 28.4416 11.7795 28.4609 11.4039C28.4662 11.29 28.4714 11.176 28.4769 11.0585C28.6046 8.59368 29.2065 6.42633 30.7727 4.47823C30.8377 4.39526 30.9027 4.31229 30.9698 4.22681C31.6393 3.4259 32.4617 2.84937 33.3057 2.24831C33.3899 2.18751 33.4742 2.1267 33.561 2.06405C33.8256 1.87318 34.0911 1.68359 34.3569 1.49445C34.4387 1.43575 34.5205 1.37705 34.6048 1.31658C36.9532 -0.333974 39.5727 -0.499074 41.9508 1.20027Z" fill="white"/>
<path d="M18.4113 25.561C18.7114 25.6962 18.922 25.844 19.1539 26.0767C19.2184 26.141 19.2829 26.2052 19.3493 26.2714C19.4537 26.3769 19.4537 26.3769 19.5602 26.4846C19.6344 26.5588 19.7086 26.633 19.785 26.7094C20.03 26.9546 20.2742 27.2005 20.5185 27.4465C20.6883 27.6167 20.8581 27.7868 21.0279 27.9569C21.4747 28.4047 21.921 28.8531 22.3671 29.3017C22.8225 29.7593 23.2784 30.2163 23.7343 30.6734C24.6287 31.5703 25.5224 32.4678 26.4157 33.3657C26.2853 33.6521 26.1488 33.8609 25.927 34.0834C25.8683 34.1428 25.8097 34.2021 25.7493 34.2632C25.6525 34.3595 25.6525 34.3595 25.5538 34.4578C25.4854 34.5267 25.4169 34.5957 25.3463 34.6668C25.1162 34.8983 24.8853 35.129 24.6545 35.3598C24.4895 35.5254 24.3246 35.6911 24.1597 35.8568C23.7111 36.3074 23.2619 36.7573 22.8125 37.207C22.5316 37.4881 22.2509 37.7694 21.9702 38.0507C21.0411 38.9819 20.1117 39.9126 19.1817 40.8428C19.1315 40.893 19.0814 40.9431 19.0297 40.9948C18.9795 41.045 18.9293 41.0952 18.8776 41.1469C18.0654 41.9593 17.2543 42.7728 16.4436 43.5866C15.6102 44.4232 14.7761 45.259 13.9413 46.094C13.4729 46.5625 13.0049 47.0312 12.5377 47.5008C12.0978 47.9429 11.6568 48.384 11.2152 48.8243C11.0537 48.9856 10.8926 49.1473 10.7318 49.3094C9.23085 50.8216 7.85352 51.93 5.63854 51.9462C4.79561 51.9482 4.08588 51.8768 3.31448 51.5091C3.23533 51.4736 3.15618 51.438 3.07463 51.4014C1.59109 50.6619 0.693023 49.3651 0.161648 47.8392C-0.180215 46.3698 0.0221646 44.7965 0.749786 43.4827C1.52178 42.31 2.61872 41.3457 3.60758 40.3589C3.76945 40.197 3.9313 40.0351 4.09313 39.8731C4.52994 39.4361 4.96706 38.9994 5.40424 38.5628C5.86202 38.1055 6.31951 37.6479 6.77704 37.1903C7.54417 36.4231 8.31148 35.6562 9.07893 34.8893C9.86894 34.1 10.6588 33.3105 11.4486 32.5208C11.4974 32.4721 11.5462 32.4233 11.5964 32.373C11.8412 32.1283 12.086 31.8835 12.3308 31.6388C14.3573 29.6125 16.3842 27.5867 18.4113 25.561ZM4.47967 44.2702C3.98457 44.7384 3.75859 45.2937 3.68177 45.9597C3.7491 46.6332 3.94926 47.2386 4.46068 47.7018C5.00036 48.1064 5.53362 48.3346 6.21243 48.3068C6.85545 48.1978 7.40257 47.889 7.82328 47.3914C8.1838 46.8457 8.33146 46.2379 8.24756 45.5875C8.04858 44.8659 7.58438 44.3155 6.96204 43.9135C6.06453 43.5955 5.23331 43.6751 4.47967 44.2702Z" fill="white"/>
</svg>
