<svg width="110" height="84" viewBox="0 0 110 84" fill="none" xmlns="http://www.w3.org/2000/svg">
<g clip-path="url(#clip0_535_3194)">
<path d="M45.5543 4.26781C46.4474 4.26837 47.3406 4.26784 48.2337 4.26751C49.7307 4.26713 51.2277 4.26762 52.7247 4.26866C54.4305 4.26983 56.1362 4.26945 57.842 4.26827C59.3335 4.26728 60.825 4.26716 62.3165 4.26772C63.1955 4.26804 64.0745 4.26812 64.9535 4.26739C68.4665 4.26491 71.9795 4.28103 75.4919 4.35519C75.8276 4.36197 76.1633 4.36784 76.499 4.37266C79.3382 4.41555 82.401 4.54612 84.944 5.93478C85.1567 6.0473 85.1567 6.0473 85.3737 6.16209C89.9926 8.70336 91.2838 13.2737 92.7888 17.9727C92.9835 18.5774 93.1819 19.181 93.3805 19.7845C93.7899 21.0289 94.1966 22.2743 94.5973 23.5216C94.703 23.85 94.703 23.85 94.8109 24.1851C94.9611 24.7059 94.961 24.7059 94.961 25.1355C95.3155 24.9937 95.67 24.852 96.0353 24.7059C96.0433 24.4807 96.0513 24.2556 96.0596 24.0236C96.0737 23.7274 96.088 23.4311 96.1024 23.1349C96.1073 22.9866 96.1121 22.8383 96.1171 22.6855C96.1491 22.0841 96.1757 21.6016 96.501 21.0847C98.3094 19.955 100.762 20.0527 102.776 20.4361C104.71 20.9162 106.072 21.7595 107.207 23.4169C107.564 24.4864 107.549 25.4043 107.1 26.438C106.332 27.8321 105.031 28.5822 103.567 29.1007C102.367 29.4177 101.162 29.4893 99.9293 29.5531C99.7609 29.5623 99.5925 29.5716 99.4191 29.5812C99.0073 29.6038 98.5955 29.6255 98.1837 29.647C98.4069 29.7512 98.6301 29.8553 98.8601 29.9626C100.675 30.8267 102.281 31.7113 103.77 33.0844C103.966 33.2611 104.162 33.4378 104.365 33.6198C105.833 35.0056 106.896 36.466 107.852 38.2404C107.955 38.4323 108.059 38.6242 108.166 38.822C109.878 42.2828 110.033 45.9838 110.036 49.7726C110.037 50.07 110.038 50.3674 110.038 50.6647C110.04 51.284 110.04 51.9033 110.04 52.5225C110.04 53.3073 110.043 54.092 110.047 54.8767C110.049 55.4898 110.049 56.1029 110.049 56.716C110.05 57.1431 110.052 57.5702 110.054 57.9973C110.044 62.3514 109.271 65.6472 106.294 68.9079C103.919 71.1589 100.897 71.9943 97.6989 71.9975C97.4735 71.9982 97.4735 71.9982 97.2435 71.9989C96.7413 72.0001 96.2391 71.9998 95.7369 71.9995C95.3727 72 95.0084 72.0007 94.6441 72.0014C93.6441 72.0031 92.6441 72.0035 91.6441 72.0037C90.5651 72.0041 89.4862 72.0057 88.4072 72.0072C86.0484 72.0101 83.6895 72.0114 81.3306 72.0123C79.8572 72.0129 78.3837 72.0138 76.9103 72.0148C72.8293 72.0174 68.7483 72.0196 64.6672 72.0203C64.2756 72.0204 64.2756 72.0204 63.876 72.0205C63.4834 72.0206 63.4834 72.0206 63.0828 72.0206C62.5525 72.0207 62.0221 72.0208 61.4917 72.0209C61.0971 72.021 61.0971 72.021 60.6945 72.0211C56.4329 72.0219 52.1713 72.0257 47.9097 72.0307C43.5324 72.0358 39.1551 72.0384 34.7778 72.0387C32.3209 72.0389 29.864 72.0401 27.4071 72.044C25.3147 72.0473 23.2224 72.0484 21.1301 72.0466C20.0632 72.0458 18.9964 72.046 17.9295 72.049C16.9513 72.0518 15.9731 72.0515 14.9949 72.0489C14.6426 72.0485 14.2902 72.0491 13.9379 72.051C9.95352 72.0709 6.45813 71.4502 3.47705 68.5932C0.309474 65.2785 -0.0322054 61.6734 -0.0359818 57.2792C-0.0366746 56.9828 -0.0373976 56.6863 -0.0381487 56.3899C-0.0394277 55.7707 -0.0398339 55.1516 -0.0397059 54.5325C-0.0396884 53.9052 -0.0411729 53.278 -0.0441118 52.6508C-0.0737687 46.224 -0.0376959 39.8619 4.51182 34.8031C4.68132 34.6136 4.85081 34.4242 5.02543 34.2291C6.96331 32.1779 9.18732 30.6896 11.8165 29.647C11.5698 29.6415 11.323 29.636 11.0688 29.6303C8.32947 29.5418 5.46599 29.362 3.43761 27.2839C2.84264 26.5635 2.52888 25.8447 2.48424 24.9073C2.65271 23.3911 3.28632 22.5677 4.42958 21.6143C6.38609 20.2929 8.90454 19.9017 11.2022 20.316C13.3185 20.8042 13.3185 20.8042 13.7501 21.4834C13.831 22.0482 13.8793 22.5684 13.8978 23.1349C13.9052 23.2857 13.9125 23.4365 13.9201 23.5918C13.9377 23.9631 13.9517 24.3345 13.965 24.7059C14.3194 24.8477 14.6739 24.9895 15.0392 25.1355C15.0763 24.9945 15.1135 24.8534 15.1517 24.708C15.7534 22.4585 16.4809 20.2536 17.2102 18.0428C17.374 17.5441 17.5365 17.045 17.6975 16.5454C17.9328 15.816 18.1724 15.088 18.4129 14.3603C18.483 14.1402 18.5531 13.9202 18.6253 13.6935C19.8476 10.048 22.1361 7.42316 25.5481 5.69896C28.2279 4.48638 31.0612 4.43598 33.953 4.37901C34.3035 4.37091 34.6541 4.36275 35.0047 4.35454C38.521 4.27641 42.0373 4.26488 45.5543 4.26781ZM37.8663 7.82968C37.6724 7.83385 37.4784 7.83802 37.2786 7.84232C35.2822 7.88654 33.2866 7.94893 31.2918 8.04105C31.1257 8.04779 30.9597 8.05452 30.7886 8.06147C28.0845 8.19783 25.8855 9.26215 24.0089 11.1982C22.1192 13.4944 21.4438 16.809 20.5311 19.5901C20.2544 20.4303 19.9771 21.2703 19.6994 22.1102C19.6327 22.3127 19.5659 22.5152 19.4971 22.7238C19.0165 24.1755 18.516 25.6193 17.9929 27.0564C17.7122 27.7957 17.7122 27.7957 17.6173 28.5729C17.8463 28.565 17.8463 28.565 18.0799 28.5569C29.0966 28.1812 40.1033 28.0746 51.126 28.088C52.6135 28.0896 54.101 28.089 55.5885 28.0872C65.0373 28.076 74.4767 28.1301 83.9215 28.4228C84.0807 28.4277 84.24 28.4326 84.4041 28.4376C85.1376 28.4604 85.871 28.4838 86.6044 28.5087C88.5314 28.5714 90.4552 28.5826 92.3829 28.5729C91.9148 26.7852 91.3683 25.0337 90.7808 23.2818C90.7356 23.1468 90.6904 23.0118 90.6438 22.8727C90.4049 22.1595 90.1652 21.4467 89.9248 20.734C89.6792 20.0056 89.4366 19.2761 89.1947 18.5464C89.0056 17.978 88.8143 17.4103 88.6223 16.8428C88.4886 16.4457 88.3574 16.0478 88.2262 15.6498C87.234 12.7392 85.9091 10.5048 83.1178 9.04986C81.6611 8.34854 80.3003 8.09649 78.7034 8.03685C78.437 8.02498 78.437 8.02498 78.1653 8.01287C77.6051 7.98896 77.0449 7.96827 76.4845 7.94884C76.3102 7.94276 76.136 7.93667 75.9565 7.9304C74.6824 7.88789 73.4083 7.85708 72.1339 7.82968C71.9303 7.82518 71.7267 7.82068 71.5169 7.81605C66.5187 7.70821 61.5205 7.70114 56.5212 7.706C55.2541 7.70722 53.9869 7.70649 52.7198 7.70526C47.7677 7.70117 42.8173 7.7203 37.8663 7.82968ZM6.44542 42.3222C6.12528 42.9625 6.19119 43.6197 6.18693 44.322C6.18571 44.4773 6.18448 44.6325 6.18322 44.7924C6.18119 45.1209 6.17979 45.4494 6.17896 45.7779C6.17687 46.2806 6.17021 46.783 6.16344 47.2857C6.16203 47.6047 6.1609 47.9237 6.16008 48.2428C6.15743 48.3932 6.15477 48.5436 6.15204 48.6985C6.15501 49.5322 6.15501 49.5322 6.53254 50.2543C9.229 52.0778 15.2108 51.3291 18.265 50.7881C21.1605 50.195 24.6094 49.0672 26.6407 46.8337C26.8549 46.2799 26.8679 45.9339 26.8556 45.3299C25.7292 44.4486 24.5982 44.1461 23.2167 43.8261C22.8659 43.7439 22.8659 43.7439 22.5081 43.6601C18.4162 42.7453 14.2328 42.3427 10.0575 42.0268C9.79334 42.006 9.5292 41.9852 9.25706 41.9637C9.013 41.9474 8.76894 41.9312 8.51749 41.9144C8.30335 41.8996 8.08922 41.8848 7.8686 41.8696C7.26767 41.8941 6.94408 41.9923 6.44542 42.3222ZM100.429 41.9824C100.275 41.9946 100.12 42.0068 99.9606 42.0195C99.4576 42.0601 98.9549 42.1036 98.4523 42.1477C98.2799 42.1625 98.1076 42.1772 97.93 42.1924C94.0153 42.531 90.1399 43.0173 86.3136 43.9335C86.1408 43.9742 85.968 44.0148 85.7899 44.0568C84.7521 44.3236 84.0022 44.6854 83.1446 45.3299C83.1049 45.9662 83.1078 46.2599 83.3595 46.8337C86.9624 50.3357 92.2957 51.206 97.1195 51.1817C98.3656 51.1578 99.6024 51.0657 100.842 50.9424C101.015 50.9256 101.187 50.9088 101.365 50.8915C102.523 50.7691 102.523 50.7691 103.555 50.2711C103.875 49.6304 103.805 48.9739 103.806 48.2713C103.806 48.1161 103.807 47.9608 103.808 47.8009C103.809 47.4724 103.809 47.1439 103.809 46.8154C103.81 46.3128 103.814 45.8103 103.818 45.3077C103.819 44.9886 103.819 44.6696 103.819 44.3506C103.821 44.125 103.821 44.125 103.824 43.8948C103.82 43.1061 103.79 42.7825 103.34 42.1074C102.354 41.8423 101.44 41.9011 100.429 41.9824ZM33.1263 45.679C32.5135 46.4957 32.39 47.3342 32.4415 48.3376C32.6988 49.4151 33.0739 50.4434 33.4561 51.4812C33.5644 51.783 33.6724 52.0849 33.7802 52.3869C34.0061 53.0173 34.2348 53.6466 34.4657 54.2752C34.7599 55.0769 35.0475 55.8807 35.3331 56.6855C35.5549 57.3087 35.78 57.9306 36.0061 58.5522C36.1133 58.848 36.2196 59.1442 36.3249 59.4407C37.1815 62.0538 37.1815 62.0538 39.1507 63.8185C39.8117 64.0427 40.3278 64.0751 41.0249 64.0765C41.2812 64.078 41.5375 64.0795 41.8016 64.0811C42.081 64.0805 42.3604 64.08 42.6482 64.0795C42.9469 64.0804 43.2455 64.0815 43.5441 64.0828C44.3538 64.0857 45.1634 64.0858 45.9731 64.0852C46.6495 64.085 47.326 64.0861 48.0025 64.0871C49.5986 64.0895 51.1947 64.0896 52.7908 64.0883C54.4362 64.087 56.0817 64.0896 57.7271 64.0942C59.141 64.098 60.5549 64.0993 61.9688 64.0986C62.8128 64.0982 63.6567 64.0987 64.5006 64.1017C65.2944 64.1044 66.0881 64.104 66.8818 64.1012C67.311 64.1005 67.7403 64.1029 68.1695 64.1054C68.4264 64.1039 68.6833 64.1024 68.948 64.1008C69.1704 64.1009 69.3928 64.1009 69.6219 64.101C70.6541 63.9695 71.3514 63.557 72.1003 62.8495C72.8493 61.8759 73.1888 60.7018 73.5849 59.5534C73.672 59.3081 73.759 59.0628 73.8487 58.8101C74.1256 58.0279 74.3987 57.2445 74.6717 56.461C74.856 55.9382 75.0405 55.4155 75.2252 54.893C75.6432 53.7099 76.0586 52.526 76.4715 51.3411C76.6258 50.9074 76.7847 50.4753 76.9478 50.0448C77.0264 49.8372 77.105 49.6296 77.186 49.4157C77.257 49.2323 77.328 49.049 77.4011 48.8601C77.6611 47.9982 77.6467 47.2504 77.3439 46.4041C76.7309 45.3961 76.1075 44.8355 74.9806 44.4706C74.4267 44.4303 73.8965 44.4116 73.343 44.4146C73.1798 44.4137 73.0166 44.4129 72.8485 44.4121C72.3026 44.4099 71.7567 44.4107 71.2108 44.4116C70.819 44.4106 70.4273 44.4095 70.0355 44.4082C68.9719 44.4054 67.9084 44.4052 66.8448 44.4058C65.9569 44.406 65.069 44.405 64.1811 44.4039C62.0865 44.4016 59.9918 44.4015 57.8972 44.4028C55.7362 44.4041 53.5753 44.4014 51.4144 44.3968C49.5589 44.3931 47.7035 44.3918 45.848 44.3925C44.7399 44.3929 43.6318 44.3923 42.5237 44.3893C41.4817 44.3866 40.4397 44.387 39.3977 44.3898C39.0154 44.3903 38.6331 44.3897 38.2508 44.388C37.7287 44.3857 37.2067 44.3875 36.6845 44.3902C36.458 44.3878 36.458 44.3878 36.2269 44.3854C34.9074 44.3999 34.0819 44.7872 33.1263 45.679ZM8.45119 59.415C7.78576 60.278 7.51816 61.2662 7.22423 62.3018C7.16579 62.4901 7.10736 62.6784 7.04715 62.8724C6.74762 63.8923 6.54196 64.6933 6.87511 65.7391C7.43056 66.3969 7.7741 66.7549 8.59386 67.0281C9.11306 67.0509 9.62616 67.0619 10.1454 67.0627C10.3814 67.0643 10.3814 67.0643 10.6221 67.066C11.1425 67.0691 11.6628 67.0706 12.1833 67.0718C12.5453 67.073 12.9074 67.0742 13.2695 67.0755C14.0289 67.0777 14.7884 67.079 15.5478 67.0797C16.5195 67.0809 17.4911 67.0861 18.4627 67.0922C19.2109 67.0962 19.959 67.0973 20.7071 67.0976C21.0652 67.0983 21.4234 67.1 21.7815 67.1028C22.2834 67.1065 22.7851 67.1061 23.287 67.1047C23.434 67.1067 23.5811 67.1087 23.7326 67.1107C24.7123 67.1022 25.3822 66.9045 26.211 66.3836C26.8962 65.3559 26.7096 64.2666 26.483 63.099C26.4122 62.7881 26.3395 62.4775 26.2648 62.1675C26.231 62.0119 26.1972 61.8562 26.1624 61.6959C25.8782 60.4893 25.4313 59.5269 24.4789 58.6899C23.7017 58.2136 23.053 58.1911 22.1623 58.1853C21.9041 58.1833 21.646 58.1812 21.38 58.1791C21.1007 58.1782 20.8214 58.1772 20.5336 58.1763C20.2438 58.1751 19.954 58.1738 19.6642 58.1726C19.0564 58.1703 18.4487 58.1691 17.841 58.1683C17.0644 58.1672 16.2879 58.162 15.5113 58.1559C14.9125 58.1519 14.3136 58.1508 13.7148 58.1504C13.2899 58.1495 12.8651 58.1455 12.4403 58.1414C12.05 58.1424 12.05 58.1424 11.6518 58.1434C11.4237 58.1426 11.1957 58.1418 10.9608 58.141C9.90318 58.2698 9.2113 58.6839 8.45119 59.415ZM84.8197 59.2035C84.2289 59.9998 84.0644 60.8626 83.8429 61.8184C83.7955 62.0051 83.7482 62.1917 83.6994 62.384C83.4227 63.5286 83.2647 64.5617 83.3595 65.7391C83.904 66.4308 84.2431 66.7498 85.0782 67.0281C85.5963 67.052 86.1083 67.0641 86.6264 67.0662C86.7833 67.0676 86.9403 67.069 87.102 67.0704C87.6213 67.0747 88.1407 67.0772 88.6601 67.0793C88.9266 67.0806 88.9266 67.0806 89.1985 67.082C90.1391 67.0864 91.0797 67.0895 92.0204 67.0915C92.9901 67.0939 93.9598 67.1013 94.9295 67.1098C95.6767 67.1155 96.4239 67.1172 97.1711 67.118C97.5285 67.1191 97.8858 67.1216 98.2431 67.1255C98.7445 67.1308 99.2456 67.1306 99.747 67.1291C99.9664 67.1332 99.9664 67.1332 100.19 67.1374C101.339 67.1251 101.987 66.8079 102.91 66.1688C103.539 64.9949 103.274 64.0547 102.917 62.8393C102.814 62.5134 102.814 62.5134 102.709 62.1809C102.617 61.8538 102.617 61.8538 102.524 61.5201C102.097 60.1254 101.606 59.1987 100.332 58.4348C99.6472 58.2065 99.1518 58.19 98.4319 58.1853C98.1737 58.1833 97.9155 58.1812 97.6495 58.1791C97.3702 58.1782 97.0909 58.1772 96.8032 58.1763C96.5133 58.1751 96.2235 58.1738 95.9337 58.1726C95.326 58.1703 94.7183 58.1691 94.1105 58.1683C93.3339 58.1672 92.5574 58.162 91.7808 58.1559C91.182 58.1519 90.5832 58.1508 89.9843 58.1504C89.5595 58.1495 89.1346 58.1455 88.7098 58.1414C88.3195 58.1424 88.3195 58.1424 87.9213 58.1434C87.6933 58.1426 87.4653 58.1418 87.2304 58.141C86.2849 58.2561 85.5861 58.6546 84.8197 59.2035Z" fill="#656161"/>
<path d="M35.8789 47.6931C48.4988 47.6931 61.1187 47.6931 74.1211 47.6931C73.6377 49.8683 73.6377 49.8683 73.3373 50.6865C73.2706 50.8701 73.2039 51.0537 73.1352 51.2428C73.0642 51.4342 72.9933 51.6256 72.9202 51.8228C72.8089 52.1273 72.8089 52.1273 72.6954 52.4379C72.4601 53.0812 72.2231 53.7238 71.9861 54.3664C71.8278 54.7984 71.6696 55.2304 71.5115 55.6625C70.8836 57.3767 70.2504 59.0886 69.6094 60.7979C59.9672 60.7979 50.325 60.7979 40.3906 60.7979C35.8789 48.3376 35.8789 48.3376 35.8789 47.6931Z" fill="#656161"/>
<path d="M108.926 68.7468C109.068 68.7468 109.21 68.7468 109.356 68.7468C109.372 69.7556 109.384 70.7643 109.391 71.7731C109.394 72.1157 109.399 72.4582 109.404 72.8007C109.412 73.2957 109.416 73.7905 109.419 74.2855C109.422 74.4364 109.425 74.5873 109.429 74.7428C109.429 75.9423 109.242 77.1965 108.399 78.1069C107.47 78.8964 106.937 79.0859 105.741 79.0968C105.479 79.0996 105.216 79.1024 104.946 79.1052C104.658 79.107 104.37 79.1086 104.082 79.11C103.865 79.1113 103.865 79.1113 103.643 79.1127C102.875 79.1171 102.108 79.1202 101.34 79.1222C100.549 79.1246 99.7574 79.132 98.9661 79.1405C98.3564 79.1462 97.7467 79.1479 97.137 79.1487C96.704 79.1503 96.2711 79.1559 95.8382 79.1617C93.3837 79.1559 93.3837 79.1559 92.3832 78.1995C91.6046 77.1685 91.2789 76.4357 91.2955 75.1515C91.2975 74.958 91.2994 74.7644 91.3014 74.5649C91.3039 74.4173 91.3064 74.2697 91.309 74.1176C91.5253 74.1145 91.7415 74.1114 91.9644 74.1081C92.7845 74.0955 93.6046 74.0789 94.4246 74.0613C94.7762 74.0542 95.1279 74.0482 95.4795 74.0432C98.4683 74.0001 101.626 73.9289 104.307 72.4527C104.449 72.3787 104.591 72.3048 104.737 72.2286C105.714 71.7012 106.553 71.0945 107.34 70.3043C107.637 70.0358 107.637 70.0358 108.067 70.0358C108.129 69.9029 108.191 69.7699 108.255 69.633C108.496 69.1765 108.496 69.1765 108.926 68.7468Z" fill="#656161"/>
<path d="M0.644458 68.7468C1.46119 69.1251 1.94674 69.6047 2.57805 70.2506C3.51668 71.1892 4.5132 71.8245 5.67986 72.4393C5.809 72.5108 5.93815 72.5823 6.0712 72.656C8.81017 74.0385 12.043 74.0084 15.039 74.0505C15.396 74.0577 15.7529 74.0651 16.1099 74.0727C16.9703 74.0907 17.8308 74.1052 18.6913 74.1176C18.7012 74.4561 18.7082 74.7946 18.714 75.1331C18.7182 75.3216 18.7224 75.51 18.7267 75.7042C18.6523 76.8846 18.1179 77.7192 17.268 78.5083C16.469 79.034 16.0337 79.0881 15.077 79.0968C14.8145 79.0996 14.552 79.1024 14.2815 79.1052C13.9936 79.107 13.7056 79.1086 13.4176 79.11C13.2002 79.1113 13.2002 79.1113 12.9783 79.1127C12.2107 79.1171 11.4431 79.1202 10.6754 79.1222C9.88407 79.1246 9.09288 79.132 8.30161 79.1405C7.69189 79.1462 7.0822 79.1479 6.47245 79.1487C6.0395 79.1503 5.60657 79.1559 5.17366 79.1617C2.71923 79.1559 2.71923 79.1559 1.71868 78.1995C0.785871 76.9642 0.613077 76.0696 0.623477 74.5582C0.623781 74.3922 0.624085 74.2262 0.624399 74.0552C0.6256 73.5255 0.628297 72.9958 0.63103 72.4661C0.632108 72.1068 0.633088 71.7475 0.633968 71.3882C0.636336 70.5077 0.640044 69.6273 0.644458 68.7468Z" fill="#656161"/>
<path d="M99.9694 43.3293C100.971 44.191 101.538 45.0238 101.641 46.3722C101.597 47.3799 101.344 48.3338 100.684 49.113C99.8144 49.8766 99.0272 50.2328 97.8881 50.3382C96.5948 50.2268 95.7375 49.8423 94.8803 48.8747C94.1968 48.0415 94.025 47.3165 94.041 46.2304C94.1813 45.1373 94.703 44.2988 95.4711 43.5307C96.9791 42.5972 98.3917 42.5256 99.9694 43.3293Z" fill="#656161"/>
<path d="M14.2472 43.3293C15.2595 44.2003 15.8494 45.1169 15.9525 46.4578C15.8723 47.6605 15.5498 48.5689 14.6366 49.3715C13.5329 50.144 12.7468 50.4094 11.3871 50.2711C10.2768 49.8864 9.39852 49.3806 8.80896 48.3376C8.35294 47.0445 8.26987 45.9638 8.78462 44.6804C9.29342 43.7771 9.9895 43.3397 10.9171 42.8862C12.1378 42.6468 13.1372 42.7639 14.2472 43.3293Z" fill="#656161"/>
<path d="M91.0936 44.0409C91.9107 44.3429 92.1231 44.6132 92.5841 45.3568C92.9446 46.327 92.7738 47.1849 92.3827 48.1228C91.9009 48.7401 91.5748 48.9359 90.8058 49.0694C89.8447 49.1272 89.1576 49.0929 88.3947 48.4719C87.6693 47.6908 87.5936 47.2655 87.6091 46.196C87.6977 45.3738 88.1153 44.8921 88.6498 44.296C89.4519 43.895 90.2151 43.9293 91.0936 44.0409Z" fill="#656161"/>
<path d="M20.8398 44.0409C21.6067 44.457 22.0632 44.9179 22.3438 45.7596C22.4881 47.2273 22.4881 47.2273 22.1188 47.8693C21.5947 48.5075 21.2 48.9432 20.3657 49.0333C19.4826 49.0585 18.853 49.0595 18.0469 48.6733C17.4393 47.8949 17.2257 47.1738 17.1875 46.1893C17.3386 45.3778 17.6735 44.83 18.2886 44.2692C19.1591 43.9475 19.9245 43.8656 20.8398 44.0409Z" fill="#656161"/>
</g>
<defs>
<clipPath id="clip0_535_3194">
<rect width="110" height="84" fill="white"/>
</clipPath>
</defs>
</svg>
