<svg width="86" height="41" viewBox="0 0 86 41" fill="none" xmlns="http://www.w3.org/2000/svg">
<path d="M28.0431 3.48369C29.5292 4.68156 30.5414 6.97614 30.8303 8.84605C30.8739 9.26701 30.9071 9.68465 30.9251 10.1075C31.0726 10.1001 31.2201 10.0928 31.372 10.0852C33.3245 10.1574 35.3345 11.2297 36.8639 12.4191C36.8639 12.5365 36.8639 12.6538 36.8639 12.7747C36.9922 12.8171 37.1205 12.8596 37.2528 12.9032C38.9454 13.6969 40.1989 16.0135 40.914 17.6981C41.7569 20.1067 42.0298 22.2647 41.9975 24.7998C41.9962 25.1067 41.9952 25.4136 41.9945 25.7205C41.9918 26.518 41.985 27.3153 41.9772 28.1128C41.97 28.9306 41.9669 29.7485 41.9634 30.5664C41.9559 32.1636 41.9437 33.7606 41.9292 35.3578C40.2 35.3578 38.4708 35.3578 36.6892 35.3578C36.6885 34.9624 36.6878 34.5669 36.687 34.1595C36.684 32.8429 36.6762 31.5264 36.6661 30.2098C36.6602 29.4128 36.6558 28.6158 36.655 27.8186C36.6543 27.0473 36.6492 26.276 36.6414 25.5046C36.6392 25.2125 36.6384 24.9204 36.6392 24.6283C36.6443 22.2225 36.3918 19.8293 34.7713 17.9315C33.7823 16.9345 32.851 16.0459 31.4491 15.7977C31.4491 15.6803 31.4491 15.5629 31.4491 15.442C30.776 15.4316 30.1028 15.4254 29.4295 15.4198C29.2398 15.4168 29.0501 15.4138 28.8547 15.4108C26.6318 15.397 25.0787 16.08 23.4785 17.68C22.1367 19.2535 21.4274 21.0692 21.4548 23.1605C21.6341 25.3243 22.4302 27.0841 23.9384 28.6006C24.0537 28.6593 24.169 28.718 24.2877 28.7785C24.2877 28.8958 24.2877 29.0132 24.2877 29.1341C24.4769 29.2056 24.4769 29.2056 24.6698 29.2786C25.1611 29.4897 25.1611 29.4897 25.5432 29.7565C27.1198 30.6125 29.4539 30.6836 31.1639 30.2191C31.4873 30.0959 31.808 29.965 32.1239 29.8232C32.4972 29.6676 32.4972 29.6676 33.0212 29.6676C33.2907 30.0267 33.2907 30.0267 33.5779 30.5233C34.1271 31.4448 34.7249 32.3077 35.3614 33.1684C35.6412 33.5796 35.6412 33.5796 35.8158 34.113C32.3438 36.2272 28.7736 36.4087 24.9209 35.4265C24.2882 35.2494 23.7845 35.0277 23.2397 34.6465C22.9962 34.5163 22.7524 34.3867 22.5083 34.2575C20.1328 32.9002 18.5851 30.947 17.3665 28.5117C17.3066 28.3925 17.2467 28.2733 17.1849 28.1505C16.8793 27.5071 16.7038 27.0062 16.777 26.289C16.6617 26.289 16.5464 26.289 16.4277 26.289C15.6175 23.8148 16.0183 19.8754 17.1263 17.5759C18.3851 15.0519 20.2841 12.5309 22.8904 11.3522C23.0057 11.3522 23.121 11.3522 23.2397 11.3522C23.0514 11.1254 22.8619 10.8997 22.6721 10.6743C22.5667 10.5484 22.4613 10.4226 22.3527 10.2929C21.8281 9.72521 21.3815 9.35684 20.6197 9.21836C20.6053 9.35406 20.5909 9.48976 20.576 9.62957C20.445 10.1075 20.445 10.1075 20.183 10.4409C19.483 10.7615 18.894 10.7237 18.1743 10.4631C17.5414 9.98803 17.0363 9.44889 16.8705 8.64878C16.8577 7.86685 16.9535 7.27694 17.4757 6.69555C18.2007 6.2496 18.7445 6.21736 19.5717 6.37325C21.0291 6.93859 22.2867 7.82928 23.3816 8.95163C23.4671 9.03575 23.5525 9.11988 23.6406 9.20655C24.0833 9.6566 24.3949 9.9932 24.4624 10.6409C24.8659 10.5822 25.2694 10.5236 25.6851 10.4631C25.6851 10.3457 25.6851 10.2284 25.6851 10.1075C26.5335 9.93444 27.3357 9.90823 28.1959 9.91852C28.3245 9.91932 28.4531 9.92013 28.5855 9.92095C28.8996 9.92303 29.2137 9.92622 29.5278 9.92964C29.2529 8.67147 28.9552 7.71925 28.1304 6.72889C28.0152 6.67021 27.8999 6.61153 27.7811 6.55107C27.7811 6.66843 27.7811 6.78579 27.7811 6.90671C27.1925 7.33116 26.6994 7.28979 26.0174 7.18247C25.5298 7.03877 25.2882 6.77876 24.9864 6.37325C24.6644 5.71766 24.7496 4.95657 24.8117 4.23942C25.0273 3.71269 25.2021 3.4612 25.6305 3.10583C26.5344 2.85711 27.2354 3.07258 28.0431 3.48369Z" fill="white"/>
<path d="M63.7565 11.6757C64.4256 12.1348 65.0654 12.6247 65.6977 13.1313C65.8451 13.2429 65.9925 13.3546 66.1443 13.4696C67.3155 14.4236 68.0823 15.6396 68.7572 16.9605C68.8147 17.0729 68.8721 17.1854 68.9314 17.3013C69.6089 18.6787 70.0208 19.9259 69.9992 21.4636C69.9993 21.6111 69.9993 21.7586 69.9994 21.9106C69.9991 22.3924 69.9949 22.874 69.9908 23.3558C69.9898 23.6921 69.989 24.0284 69.9885 24.3647C69.9865 25.2455 69.9813 26.1263 69.9754 27.0071C69.97 27.9077 69.9676 28.8082 69.9649 29.7088C69.9592 31.4725 69.9499 33.2362 69.939 35C68.1895 35 66.4399 35 64.6374 35C64.6321 34.417 64.6321 34.417 64.6268 33.8222C64.6149 32.5309 64.6012 31.2396 64.5866 29.9484C64.5778 29.1663 64.5696 28.3842 64.5628 27.6021C64.5563 26.8459 64.5481 26.0896 64.5388 25.3334C64.5355 25.0464 64.5328 24.7594 64.5308 24.4724C64.5487 21.1038 64.5487 21.1038 63.0469 18.1645C62.9626 18.0538 62.8783 17.9431 62.7915 17.8289C61.8015 16.5936 60.3439 15.7187 58.7424 15.5057C58.2981 15.4791 57.8591 15.4711 57.4139 15.4743C57.1798 15.4756 57.1798 15.4756 56.9409 15.477C55.7292 15.5088 54.8503 15.7206 53.8574 16.4289C53.7338 16.5043 53.6101 16.5797 53.4826 16.6574C51.8912 17.6944 50.9562 19.3233 50.4998 21.1151C50.3677 22.1831 50.3926 23.2648 50.3921 24.3389C50.3894 24.6474 50.3865 24.956 50.3832 25.2646C50.3755 26.0706 50.372 26.8766 50.3693 27.6827C50.3658 28.5077 50.3584 29.3326 50.3513 30.1576C50.3381 31.7717 50.3295 33.3858 50.323 35C48.5735 35 46.824 35 45.0214 35C45.0174 33.2619 45.0142 31.5237 45.0123 29.7856C45.0114 28.9784 45.0101 28.1712 45.0081 27.364C45.0062 26.5841 45.0051 25.8043 45.0047 25.0244C45.0043 24.7278 45.0037 24.4311 45.0027 24.1345C44.9911 20.3807 44.9911 20.3807 45.5516 18.8588C45.6773 18.3976 45.791 17.9345 45.905 17.4703C46.0217 17.4703 46.1383 17.4703 46.2585 17.4703C46.2851 17.284 46.2851 17.284 46.3123 17.094C46.9167 14.6765 49.2472 12.9565 51.2384 11.6668C51.6314 11.4338 52.0269 11.2379 52.4437 11.0485C52.7075 10.927 52.7075 10.927 52.9766 10.8031C56.3344 9.47954 60.6589 9.80667 63.7565 11.6757Z" fill="white"/>
<path d="M74.0378 2C75.6601 2 77.2823 2 78.9538 2C78.9538 4.89175 78.9538 7.7835 78.9538 10.7629C81.279 10.7629 83.6043 10.7629 86 10.7629C86 12.4979 86 14.233 86 16.0206C83.6747 16.0206 81.3495 16.0206 78.9538 16.0206C78.9584 17.2022 78.9655 18.3831 78.9788 19.5645C78.9825 19.9654 78.9849 20.3664 78.9858 20.7673C78.9933 23.5812 79.0149 26.117 80.9202 28.2887C82.0685 29.5068 83.1616 30.2567 84.7608 30.5232C85.1697 30.5955 85.5787 30.6678 86 30.7423C86 32.4773 86 34.2124 86 36C84.8814 36 84.1451 35.9971 83.1119 35.7371C82.9137 35.6883 82.7156 35.6395 82.5115 35.5892C82.3649 35.5513 82.2183 35.5133 82.0672 35.4742C82.0672 35.3586 82.0672 35.2429 82.0672 35.1237C81.9118 35.1165 81.7563 35.1093 81.5961 35.1018C79.6829 34.8083 77.6412 32.7687 76.5086 31.1756C75.3487 29.4302 75.3487 29.4302 75.3487 28.6392C75.2406 28.6392 75.1324 28.6392 75.021 28.6392C74.8053 28.0048 74.6933 27.5709 74.6933 26.8866C74.5851 26.8866 74.477 26.8866 74.3655 26.8866C74.0693 25.4561 73.9923 24.0945 74.0006 22.6324C74.0005 22.4081 74.0005 22.1839 74.0004 21.9529C74.0004 21.3444 74.0023 20.7358 74.0046 20.1272C74.0066 19.4889 74.0068 18.8506 74.0072 18.2123C74.0082 17.0064 74.0109 15.8004 74.0142 14.5945C74.0179 13.2204 74.0197 11.8463 74.0213 10.4722C74.0247 7.6481 74.0307 4.82406 74.0378 2Z" fill="white"/>
<path d="M12.096 37.964C12.096 38.5 12.032 39.024 11.904 39.536C11.768 40.048 11.6 40.456 11.4 40.76L10.056 40.136C10.24 39.848 10.392 39.5 10.512 39.092C10.624 38.684 10.68 38.284 10.68 37.892C10.68 37.1 10.484 36.704 10.092 36.704C9.908 36.704 9.776 36.812 9.696 37.028C9.616 37.244 9.548 37.576 9.492 38.024C9.412 38.552 9.32 38.988 9.216 39.332C9.112 39.676 8.928 39.976 8.664 40.232C8.4 40.48 8.024 40.604 7.536 40.604C7.128 40.604 6.768 40.488 6.456 40.256C6.136 40.016 5.888 39.672 5.712 39.224C5.536 38.768 5.448 38.232 5.448 37.616C5.448 37.16 5.5 36.708 5.604 36.26C5.7 35.804 5.836 35.428 6.012 35.132L7.344 35.756C7.024 36.324 6.864 36.944 6.864 37.616C6.864 38.016 6.92 38.316 7.032 38.516C7.144 38.716 7.288 38.816 7.464 38.816C7.664 38.816 7.804 38.708 7.884 38.492C7.964 38.276 8.04 37.932 8.112 37.46C8.2 36.932 8.296 36.5 8.4 36.164C8.496 35.828 8.676 35.536 8.94 35.288C9.204 35.04 9.572 34.916 10.044 34.916C10.444 34.916 10.8 35.036 11.112 35.276C11.424 35.516 11.668 35.868 11.844 36.332C12.012 36.788 12.096 37.332 12.096 37.964ZM11.688 30.233C11.824 30.417 11.928 30.645 12 30.917C12.064 31.181 12.096 31.457 12.096 31.745C12.096 32.521 11.9 33.117 11.508 33.533C11.116 33.949 10.54 34.157 9.78 34.157H4.116L4.116 32.285H5.688V30.689H7.128V32.285H9.756C10.028 32.285 10.24 32.217 10.392 32.081C10.536 31.945 10.608 31.749 10.608 31.493C10.608 31.205 10.528 30.949 10.368 30.725L11.688 30.233ZM5.544 23.0317H12V24.8077H11.232C11.512 25.0557 11.728 25.3517 11.88 25.6957C12.024 26.0397 12.096 26.4117 12.096 26.8117C12.096 27.6597 11.852 28.3317 11.364 28.8277C10.876 29.3237 10.152 29.5717 9.192 29.5717H5.544V27.6997H8.916C9.956 27.6997 10.476 27.2637 10.476 26.3917C10.476 25.9437 10.332 25.5837 10.044 25.3117C9.748 25.0397 9.312 24.9037 8.736 24.9037H5.544V23.0317ZM3.096 15.0814H12V16.8694H11.256C11.816 17.3334 12.096 18.0054 12.096 18.8854C12.096 19.4934 11.96 20.0454 11.688 20.5414C11.416 21.0294 11.028 21.4134 10.524 21.6934C10.02 21.9734 9.436 22.1134 8.772 22.1134C8.108 22.1134 7.524 21.9734 7.02 21.6934C6.516 21.4134 6.128 21.0294 5.856 20.5414C5.584 20.0454 5.448 19.4934 5.448 18.8854C5.448 18.0614 5.708 17.4174 6.228 16.9534H3.096L3.096 15.0814ZM10.56 18.5614C10.56 18.0894 10.4 17.6974 10.08 17.3854C9.752 17.0734 9.316 16.9174 8.772 16.9174C8.228 16.9174 7.796 17.0734 7.476 17.3854C7.148 17.6974 6.984 18.0894 6.984 18.5614C6.984 19.0414 7.148 19.4374 7.476 19.7494C7.796 20.0614 8.228 20.2174 8.772 20.2174C9.316 20.2174 9.752 20.0614 10.08 19.7494C10.4 19.4374 10.56 19.0414 10.56 18.5614ZM5.544 13.7088V11.8368H12V13.7088H5.544ZM4.644 12.7728C4.644 13.1168 4.544 13.3968 4.344 13.6128C4.144 13.8288 3.896 13.9368 3.6 13.9368C3.304 13.9368 3.056 13.8288 2.856 13.6128C2.656 13.3968 2.556 13.1168 2.556 12.7728C2.556 12.4288 2.652 12.1488 2.844 11.9328C3.036 11.7168 3.276 11.6088 3.564 11.6088C3.876 11.6088 4.136 11.7168 4.344 11.9328C4.544 12.1488 4.644 12.4288 4.644 12.7728ZM12.096 4.349C12.096 5.029 11.956 5.641 11.676 6.185C11.388 6.721 10.992 7.141 10.488 7.445C9.984 7.749 9.412 7.901 8.772 7.901C8.132 7.901 7.56 7.749 7.056 7.445C6.552 7.141 6.16 6.721 5.88 6.185C5.592 5.641 5.448 5.029 5.448 4.349C5.448 3.669 5.592 3.061 5.88 2.525C6.16 1.989 6.552 1.569 7.056 1.265C7.56 0.960999 8.132 0.809 8.772 0.809C9.412 0.809 9.984 0.960999 10.488 1.265C10.992 1.569 11.388 1.989 11.676 2.525C11.956 3.061 12.096 3.669 12.096 4.349ZM10.56 4.349C10.56 3.869 10.4 3.477 10.08 3.173C9.752 2.861 9.316 2.705 8.772 2.705C8.228 2.705 7.796 2.861 7.476 3.173C7.148 3.477 6.984 3.869 6.984 4.349C6.984 4.829 7.148 5.225 7.476 5.537C7.796 5.849 8.228 6.005 8.772 6.005C9.316 6.005 9.752 5.849 10.08 5.537C10.4 5.225 10.56 4.829 10.56 4.349Z" fill="white"/>
</svg>
