<svg width="84" height="42" viewBox="0 0 84 42" fill="none" xmlns="http://www.w3.org/2000/svg">
<path d="M55.0623 5.58857C55.219 5.58704 55.3757 5.5855 55.5371 5.58391C55.7929 5.58289 55.7929 5.58289 56.0539 5.58185C56.2279 5.58094 56.4019 5.58003 56.5812 5.57909C56.9503 5.57757 57.3193 5.57653 57.6884 5.57591C58.2541 5.57436 58.8198 5.56939 59.3855 5.56434C59.7433 5.5633 60.1012 5.56246 60.459 5.56184C60.6289 5.55987 60.7988 5.55789 60.9739 5.55585C61.1315 5.55633 61.2891 5.55682 61.4516 5.55731C61.5904 5.55673 61.7292 5.55614 61.8723 5.55554C62.3013 5.62668 62.4311 5.74197 62.6918 6.09456C63.1896 7.35804 63.4211 8.70489 63.666 10.0393C63.7725 10.5591 63.9163 11.0131 64.1137 11.5005C64.3667 12.2101 64.5292 12.9521 64.711 13.6839C64.8058 14.0481 64.9097 14.4099 65.0256 14.7675C65.151 15.1584 65.2374 15.5241 65.3058 15.9286C65.4512 16.7203 65.6539 17.4894 65.8624 18.2656C66.0604 19.0218 66.2044 19.7786 66.332 20.5505C66.4763 21.4225 66.6816 22.2016 67.0648 22.9965C67.2393 23.5604 67.2014 24.0715 67.184 24.6622C66.6031 24.6762 66.0223 24.6847 65.4413 24.6922C65.1942 24.6982 65.1942 24.6982 64.9421 24.7044C64.7834 24.7059 64.6246 24.7075 64.4611 24.7091C64.242 24.7129 64.242 24.7129 64.0186 24.7167C63.5481 24.6522 63.3425 24.5179 63.0016 24.182C62.8558 23.7768 62.8558 23.7768 62.7595 23.3016C62.7224 23.1287 62.6853 22.9558 62.647 22.7777C62.6107 22.6072 62.5743 22.4368 62.5369 22.2612C62.4644 21.9873 62.3902 21.7138 62.3142 21.4409C62.0968 20.6259 61.9124 19.8046 61.7333 18.9799C61.7056 18.8534 61.6778 18.7268 61.6492 18.5965C61.5433 18.1017 61.4525 17.6475 61.4525 17.1391C61.3503 17.1391 61.2481 17.1391 61.1427 17.1391C61.1146 16.9631 61.0864 16.7871 61.0574 16.6058C60.8636 15.4189 60.657 14.2555 60.3301 13.0987C60.1416 12.3861 60.0056 11.6624 59.8642 10.9384C59.7395 10.3365 59.7395 10.3365 59.4388 9.45594C58.672 9.45594 57.9052 9.45594 57.1152 9.45594C56.8886 10.0413 56.7314 10.5225 56.6021 11.1266C56.5428 11.3987 56.5428 11.3987 56.4823 11.6762C56.4058 12.0322 56.3298 12.3882 56.254 12.7442C55.9141 14.3372 55.5734 15.9124 55.0881 17.4655C54.7392 18.6336 54.4683 19.756 54.4818 20.9807C54.6351 20.983 54.7883 20.9854 54.9462 20.9878C55.5138 20.997 56.0813 21.0094 56.6488 21.0227C56.8946 21.028 57.1405 21.0325 57.3863 21.0361C57.7393 21.0415 58.0922 21.0499 58.4452 21.0588C58.5554 21.0599 58.6656 21.0609 58.7792 21.0619C59.0893 21.0715 59.0893 21.0715 59.5937 21.1407C59.9172 21.6422 59.9421 21.7571 59.9392 22.3275C59.9389 22.4624 59.9386 22.5974 59.9383 22.7364C59.9364 22.8767 59.9345 23.017 59.9325 23.1616C59.9324 23.3739 59.9324 23.3739 59.9322 23.5905C59.9252 24.6397 59.9252 24.6397 59.7486 24.8223C59.5313 24.8418 59.3132 24.8507 59.0952 24.8551C58.8861 24.8599 58.8861 24.8599 58.6729 24.8648C58.5203 24.8675 58.3677 24.8702 58.2104 24.8729C58.0526 24.8762 57.8948 24.8796 57.7321 24.883C57.3954 24.8899 57.0586 24.8965 56.7218 24.9027C56.217 24.9121 55.7122 24.9225 55.2073 24.9332C53.6744 24.9647 52.1413 24.9896 50.608 24.9967C50.4839 24.9978 50.3599 24.9989 50.232 25C49.9446 25.0004 49.6572 24.9923 49.37 24.9823C49.2151 24.8223 49.2151 24.8223 49.2 24.4915C49.2017 24.3597 49.2035 24.2278 49.2054 24.092C49.2068 23.9597 49.2082 23.8274 49.2096 23.6912C49.2114 23.589 49.2132 23.4869 49.2151 23.3817C49.3173 23.3817 49.4196 23.3817 49.5249 23.3817C49.5307 23.2736 49.5365 23.1654 49.5424 23.054C49.5526 22.9113 49.5628 22.7685 49.5733 22.6214C49.5823 22.4802 49.5913 22.3391 49.6005 22.1937C49.6798 21.781 49.6798 21.781 49.8994 21.4815C50.2332 21.0174 50.3314 20.5239 50.4543 19.9703C50.4802 19.8587 50.5062 19.7471 50.5329 19.6322C50.7581 18.6469 50.9508 17.6553 51.1338 16.6608C51.2288 16.1787 51.2288 16.1787 51.3837 15.6985C51.486 15.6985 51.5882 15.6985 51.6936 15.6985C51.6968 15.5496 51.6968 15.5496 51.7002 15.3978C51.7539 14.3674 51.9717 13.4979 52.3111 12.5294C52.6519 11.5231 52.8435 10.4991 53.0207 9.45036C53.1628 8.63867 53.3724 7.9637 53.7073 7.21502C53.7948 6.95618 53.8793 6.69622 53.959 6.4347C54.1961 5.65754 54.2642 5.59487 55.0623 5.58857Z" fill="#DEDEDE"/>
<path d="M80.2738 3.68792C81.5023 4.39928 82.3765 5.76735 83.0683 7.18977C83.1724 7.7775 83.1724 7.7775 83.2071 8.23462C83.2988 8.23462 83.3904 8.23462 83.4847 8.23462C83.4847 8.52195 83.4847 8.80928 83.4847 9.10532C82.9239 9.14085 82.3631 9.16242 81.8017 9.1815C81.564 9.19682 81.564 9.19682 81.3214 9.21245C80.1569 9.24218 80.1569 9.24218 79.736 8.83735C79.5202 8.50671 79.5202 8.50671 79.3537 8.17475C79.056 7.67519 78.6831 7.64484 78.2102 7.53805C78.2102 7.42312 78.2102 7.30819 78.2102 7.18977C77.8168 7.17554 77.4238 7.16525 77.0303 7.15712C76.9205 7.15274 76.8106 7.14837 76.6974 7.14386C75.77 7.12955 75.0374 7.34285 74.2543 8.00606C73.9482 8.59802 73.9718 9.11586 74.0461 9.80188C74.1685 10.2885 74.2366 10.4385 74.5926 10.6835C74.6871 10.7373 74.7815 10.7912 74.8789 10.8467C74.9423 10.9318 75.0057 11.0169 75.071 11.1046C75.328 11.4077 75.4989 11.4808 75.8386 11.5861C75.9436 11.6202 76.0487 11.6543 76.1569 11.6894C76.2676 11.7238 76.3784 11.7582 76.4925 11.7936C77.2954 12.0552 78.0293 12.3437 78.7757 12.8038C79.0763 12.9529 79.3284 12.9864 79.6503 13.0126C81.0336 13.1459 82.2493 14.189 83.2136 15.3757C83.9717 16.4979 84.0495 17.5679 83.9798 18.983C83.8889 20.0623 83.5967 21.028 83.2071 21.9917C83.1226 22.222 83.1226 22.222 83.0363 22.457C82.7604 22.9124 82.5118 23.0563 82.0896 23.2541C81.806 23.3912 81.5457 23.5554 81.2774 23.7345C81.1854 23.7949 81.0933 23.8552 80.9985 23.9175C80.811 24.0413 80.6241 24.1664 80.4378 24.2929C79.7951 24.7106 79.2139 24.9071 78.4878 24.9521C78.3698 24.9597 78.2519 24.9672 78.1303 24.9751C75.9147 25.0815 74.1559 24.8998 72.2416 23.3848C72.0927 23.2735 71.9439 23.1621 71.7905 23.0474C70.8852 22.1956 70.3473 21.0058 69.8819 19.7279C69.8819 19.5555 69.8819 19.3831 69.8819 19.2055C69.7903 19.2055 69.6987 19.2055 69.6043 19.2055C69.5984 18.8573 69.5987 18.5088 69.6043 18.1606C69.9296 17.7526 70.7124 17.9376 71.1485 17.9321C71.3439 17.9245 71.3439 17.9245 71.5432 17.9168C72.4098 17.9069 72.9287 18.029 73.6296 18.683C73.8265 18.9932 73.8265 18.9932 73.9333 19.2925C74.3324 20.2596 74.7032 20.6379 75.5225 21.01C76.1166 21.211 76.7049 21.2032 77.3166 21.1972C77.4425 21.2007 77.5684 21.2041 77.6981 21.2077C78.693 21.2068 79.1986 20.9097 80.0027 20.185C80.2347 19.7495 80.2085 19.3739 80.2055 18.8572C80.2066 18.674 80.2076 18.4908 80.2087 18.3021C80.1854 17.8175 80.1854 17.8175 79.9783 17.513C79.712 17.2668 79.4455 17.0553 79.1558 16.8546C79.0565 16.7845 78.9572 16.7145 78.8549 16.6423C77.9368 16.0843 77.0338 15.7857 76.0327 15.5594C73.7922 15.0128 72.2773 14.4485 70.8536 12.0657C70.5005 11.3019 70.525 10.6222 70.5239 9.75834C70.5205 9.61535 70.5171 9.47236 70.5136 9.32503C70.5096 8.26587 70.7129 7.57502 71.1312 6.66735C71.2213 6.39798 71.2213 6.39798 71.3133 6.12316C71.5818 5.54941 71.8829 5.22859 72.2936 4.81847C72.5395 4.57833 72.5395 4.57833 72.7274 4.18585C73.0477 3.71709 73.4389 3.6822 73.9072 3.53282C74.0218 3.44528 74.1363 3.35773 74.2543 3.26753C75.9833 2.35237 78.5623 2.85136 80.2738 3.68792Z" fill="#DDDDDD"/>
<path d="M1.34733 5.5761C4.2645 5.54292 7.18004 5.5311 10.0946 5.69058C10.3383 5.7039 10.5821 5.71642 10.8259 5.72814C11.1655 5.74491 11.5047 5.76497 11.8441 5.78621C12.0365 5.79748 12.2288 5.80874 12.427 5.82035C12.6485 5.86329 12.6485 5.86329 12.8745 5.9071C13.2085 6.4611 13.2085 6.62064 13.1965 7.26459C13.1927 7.52811 13.1927 7.52811 13.1888 7.79696C13.1845 7.98676 13.1801 8.17657 13.1756 8.37213C13.1722 8.56744 13.1688 8.76274 13.1653 8.96397C13.1579 9.37759 13.1496 9.79119 13.1407 10.2048C13.1272 10.8367 13.116 11.4687 13.1052 12.1007C13.0976 12.5025 13.0899 12.9043 13.0821 13.3061C13.0769 13.5893 13.0769 13.5893 13.0716 13.8782C13.0677 14.0554 13.0637 14.2327 13.0597 14.4153C13.0564 14.5704 13.0532 14.7254 13.0499 14.8852C13.0221 15.3767 12.9514 15.8488 12.8745 16.3335C12.8603 16.6218 12.8515 16.9105 12.8481 17.1992C12.7803 20.5844 12.7803 20.5844 12.1259 21.9605C12.0271 21.9605 11.9283 21.9605 11.8265 21.9605C11.771 22.155 11.771 22.155 11.7143 22.3535C11.494 22.8649 11.3665 22.8768 10.9283 23.119C10.8789 23.2555 10.8295 23.392 10.7786 23.5327C10.6289 23.9465 10.6289 23.9465 10.3202 24.143C10.1766 24.2096 10.1766 24.2096 10.0301 24.2775C9.9807 24.3867 9.9313 24.4959 9.8804 24.6085C9.00305 24.9202 8.15652 24.9778 7.24188 24.9912C7.08109 24.9955 7.08109 24.9955 6.91704 25C5.85914 24.9986 5.04974 24.594 4.2104 23.8844C4.03961 23.7442 4.03961 23.7442 3.86538 23.6012C3.54127 23.2245 3.49229 22.9667 3.44317 22.457C3.34437 22.457 3.24556 22.457 3.14376 22.457C3.0851 22.2965 3.02643 22.1361 2.96599 21.9708C2.72471 21.3416 2.42477 20.7615 2.10871 20.1749C1.93228 19.7778 1.85863 19.4169 1.79644 18.9815C1.69763 18.9815 1.59883 18.9815 1.49703 18.9815C1.44203 18.6935 1.44203 18.6935 1.38592 18.3997C1.21706 17.6523 0.927284 17.0381 0.580099 16.3749C0 15.2632 0 15.2632 0 14.513C3.15624 14.7651 3.15624 14.7651 4.34139 16.0025C4.54754 16.2724 4.74966 16.5465 4.9402 16.83C5.08841 16.9119 5.08841 16.9119 5.23961 16.9955C5.58359 17.9367 5.74889 18.9464 5.91736 19.9402C5.99891 20.3612 6.12293 20.7431 6.28753 21.133C6.49926 21.17 6.71144 21.2039 6.92377 21.2364C7.04187 21.2556 7.15997 21.2748 7.28165 21.2946C7.68881 21.2991 7.89593 21.2142 8.23367 20.9675C8.35422 20.6282 8.35422 20.6282 8.38337 20.3055C8.53158 20.3055 8.67978 20.3055 8.83248 20.3055C8.88188 17.6294 8.93128 14.9533 8.98218 12.1961C10.1798 11.5341 10.1798 11.5341 10.6196 11.3686C10.7214 11.3139 10.8233 11.2593 10.9283 11.2031C11.0267 10.8681 11.0267 10.8681 11.078 10.5411C10.9285 10.5191 10.7789 10.4971 10.6248 10.4745C10.4317 10.4453 10.2385 10.416 10.0395 10.3859C9.84668 10.3571 9.65389 10.3283 9.45527 10.2986C8.98218 10.2101 8.98218 10.2101 8.83248 10.0446C8.54918 10.0139 8.26518 9.9911 7.98104 9.97217C7.32194 9.91832 6.75359 9.83172 6.13782 9.54807C6.13782 9.43885 6.13782 9.32962 6.13782 9.21708C6.00506 9.17612 5.87229 9.13515 5.7355 9.09295C5.21426 8.87551 4.91711 8.61464 4.49109 8.22408C4.14734 7.99035 3.79711 7.77692 3.44317 7.56209C3.44317 7.45286 3.44317 7.34363 3.44317 7.23109C3.34745 7.19354 3.25174 7.156 3.15312 7.11731C2.52501 6.81972 1.9403 6.44679 1.34733 6.0726C1.34733 5.90876 1.34733 5.74491 1.34733 5.5761Z" fill="#D6D6D6"/>
<path d="M17.29 5.59583C17.4317 5.59251 17.5734 5.58918 17.7194 5.58576C19.0255 5.57786 19.0255 5.57786 19.6268 6.11978C19.7567 6.23106 19.7567 6.23106 19.8893 6.34459C20.1289 6.68427 20.1456 6.93547 20.1739 7.3591C20.1885 7.55455 20.1885 7.55455 20.2034 7.75395C20.209 7.85307 20.2145 7.9522 20.2202 8.05433C20.3671 8.05433 20.514 8.05433 20.6654 8.05433C20.8879 8.36731 20.8879 8.36731 21.1105 8.78986C21.1883 8.937 21.2661 9.08413 21.3463 9.23572C21.5144 9.58174 21.6577 9.91715 21.7874 10.2811C21.9764 10.8173 21.9764 10.8173 22.3809 11.2081C22.7831 11.6451 22.8999 11.9764 23.0392 12.5683C23.1372 12.5683 23.2351 12.5683 23.336 12.5683C23.4339 12.9407 23.5318 13.3131 23.6327 13.6968C23.8286 13.6968 24.0244 13.6968 24.2262 13.6968C24.2904 13.5305 24.3547 13.3643 24.4209 13.193C25.0133 11.7041 25.0133 11.7041 25.3928 11.3246C25.7943 10.858 26.0191 10.3388 26.2662 9.76722C26.6668 8.87356 27.0748 7.98695 27.5181 7.11728C27.6089 6.93669 27.6998 6.7561 27.7934 6.57004C28.1125 6.07518 28.3307 5.9002 28.8256 5.63614C29.2367 5.58123 29.2367 5.58123 29.677 5.58891C29.9144 5.59124 29.9144 5.59124 30.1566 5.59363C30.402 5.59971 30.402 5.59971 30.6524 5.60591C30.8189 5.60809 30.9854 5.61027 31.1569 5.61252C31.5668 5.61821 31.9766 5.62615 32.3864 5.63614C32.43 6.35818 32.3883 6.72056 31.9599 7.27849C31.8807 7.38385 31.8015 7.48922 31.7199 7.59777C31.6461 7.69524 31.5723 7.7927 31.4962 7.89312C31.3983 8.05272 31.3004 8.21232 31.1995 8.37676C31.1016 8.37676 31.0036 8.37676 30.9027 8.37676C30.8048 8.69596 30.7069 9.01516 30.606 9.34403C30.5081 9.34403 30.4102 9.34403 30.3093 9.34403C30.2682 9.45916 30.227 9.57429 30.1847 9.69291C29.7038 10.9701 29.0898 12.1772 28.4454 13.3643C28.3915 13.4653 28.3375 13.5662 28.2819 13.6703C27.9312 14.3057 27.5403 14.7926 27.0452 15.3089C26.2451 16.78 25.9901 18.3419 25.9597 20.0225C25.955 20.2355 25.955 20.2355 25.9503 20.4528C25.9406 20.9044 25.9319 21.3561 25.9231 21.8078C25.9167 22.1148 25.9103 22.4218 25.9037 22.7288C25.8879 23.4797 25.8728 24.2307 25.8582 24.9817C25.2679 24.9863 24.6775 24.9892 24.0871 24.9918C23.8342 24.9938 23.8342 24.9938 23.5762 24.9959C23.416 24.9964 23.2559 24.9969 23.0908 24.9974C22.8682 24.9987 22.8682 24.9987 22.6411 25C22.2974 24.9817 22.2974 24.9817 22.149 24.8205C22.1307 24.3375 22.1214 23.8577 22.1177 23.3746C22.1136 23.0732 22.1093 22.7717 22.105 22.4703C22.0989 21.9945 22.0934 21.5188 22.0895 21.043C22.0854 20.5842 22.0785 20.1255 22.0714 19.6667C22.0709 19.5266 22.0704 19.3865 22.0699 19.2421C22.0472 17.9948 21.8219 16.9477 21.1105 15.9538C21.1105 15.741 21.1105 15.5282 21.1105 15.3089C20.9146 15.3089 20.7188 15.3089 20.517 15.3089C20.4191 14.9365 20.3211 14.5641 20.2202 14.1804C20.1223 14.1804 20.0244 14.1804 19.9235 14.1804C19.8746 13.9676 19.8256 13.7548 19.7751 13.5356C19.6772 13.5356 19.5793 13.5356 19.4784 13.5356C19.4631 13.4325 19.4478 13.3294 19.432 13.2232C19.3984 13.1135 19.3647 13.0038 19.33 12.8907C19.1097 12.8109 19.1097 12.8109 18.8849 12.7295C18.7366 12.3769 18.7366 12.3769 18.5882 11.9234C18.3053 11.2299 18.3053 11.2299 17.8464 10.674C17.4439 10.1821 17.3617 9.67761 17.2245 9.04491C17.1651 8.87377 17.1651 8.87377 17.1045 8.69918C16.9576 8.64598 16.8108 8.59278 16.6594 8.53797C16.4641 8.18091 16.4641 8.18091 16.2792 7.74198C16.0178 7.1224 16.0178 7.1224 15.6208 6.60341C15.593 6.19031 15.593 6.19031 15.6208 5.79735C15.9692 5.41884 16.8225 5.59853 17.29 5.59583Z" fill="#DEDEDE"/>
<path d="M35.4788 5.55554C37.5642 5.55554 39.6496 5.55554 41.7983 5.55554C41.9603 6.19688 41.9603 6.19688 41.7476 6.6378C41.6574 6.75685 41.5671 6.8759 41.4742 6.99855C41.3672 6.99855 41.2603 6.99855 41.1501 6.99855C41.1501 7.10437 41.1501 7.21019 41.1501 7.31922C41.0298 7.38867 40.9095 7.45811 40.7855 7.52966C40.269 7.84329 40.0208 8.09729 39.6918 8.6019C39.6323 9.03773 39.6093 9.40665 39.6182 9.84093C39.6181 9.96303 39.618 10.0851 39.6179 10.2109C39.6183 10.6127 39.6234 11.0142 39.6285 11.4159C39.6297 11.6951 39.6306 11.9744 39.6312 12.2536C39.6337 12.9872 39.6401 13.7207 39.6473 14.4543C39.6539 15.2034 39.6568 15.9525 39.6601 16.7016C39.6671 18.1704 39.6781 19.6392 39.6918 21.108C39.7905 21.1093 39.8893 21.1106 39.991 21.1119C41.0161 21.1257 42.0412 21.1416 43.0662 21.1589C43.4491 21.165 43.832 21.1706 44.2149 21.1756C44.7644 21.1829 45.3137 21.1922 45.8631 21.2019C46.0351 21.2038 46.2071 21.2056 46.3844 21.2076C46.5433 21.2107 46.7022 21.2139 46.866 21.2172C47.0765 21.2204 47.0765 21.2204 47.2912 21.2237C47.6316 21.2683 47.6316 21.2683 47.9557 21.589C47.9977 21.9 47.9977 21.9 47.9988 22.2754C47.9994 22.4779 47.9994 22.4779 48 22.6844C47.9988 22.8256 47.9975 22.9667 47.9962 23.1122C47.9981 23.3239 47.9981 23.3239 48 23.5399C47.9996 23.6749 47.9992 23.8099 47.9988 23.9489C47.9984 24.0728 47.998 24.1967 47.9977 24.3244C47.9557 24.6354 47.9557 24.6354 47.6316 24.956C47.1396 24.9967 47.1396 24.9967 46.4993 24.9975C46.3245 24.9984 46.3245 24.9984 46.1463 24.9992C45.7603 25.0006 45.3744 24.9997 44.9884 24.9986C44.7208 24.9988 44.4532 24.9991 44.1856 24.9995C43.6244 25 43.0632 24.9993 42.502 24.9978C41.7816 24.996 41.0612 24.9971 40.3409 24.999C39.7882 25.0001 39.2355 24.9998 38.6828 24.9989C38.4171 24.9987 38.1515 24.999 37.8858 24.9997C37.5149 25.0005 37.1441 24.9993 36.7732 24.9975C36.5618 24.9973 36.3505 24.997 36.1328 24.9967C35.6408 24.956 35.6408 24.956 35.3167 24.6354C35.2777 24.262 35.2777 24.262 35.2799 23.7895C35.28 23.6129 35.28 23.4364 35.28 23.2545C35.2825 22.9677 35.2825 22.9677 35.2851 22.675C35.2855 22.4797 35.286 22.2845 35.2865 22.0833C35.2883 21.4575 35.2923 20.8318 35.2965 20.2061C35.2981 19.7827 35.2996 19.3593 35.3009 18.936C35.3045 17.8963 35.3101 16.8566 35.3167 15.817C34.3542 15.817 33.3917 15.817 32.4 15.817C32.5877 14.8884 32.9033 14.3654 33.6875 13.8435C33.8623 13.7368 33.8623 13.7368 34.0407 13.628C34.8881 13.0785 35.5802 12.4208 36.2889 11.7084C36.4124 11.5881 36.5358 11.4678 36.663 11.3439C36.7802 11.2273 36.8974 11.1107 37.0181 10.9906C37.1234 10.8859 37.2287 10.7812 37.3371 10.6733C37.6386 10.3431 37.6386 10.3431 37.7473 9.72424C36.9452 9.72424 36.1431 9.72424 35.3167 9.72424C35.3124 9.11964 35.3091 8.51507 35.3066 7.91046C35.3052 7.7386 35.3039 7.56675 35.3025 7.38968C35.302 7.22485 35.3014 7.06003 35.3009 6.8902C35.3 6.73823 35.2992 6.58625 35.2983 6.42967C35.3167 6.03655 35.3167 6.03655 35.4788 5.55554Z" fill="#E0E0E0"/>
<path d="M3.78464 0C4.6824 0.0629005 5.21697 0.298148 5.9481 0.782156C6.12909 0.898917 6.31037 1.01526 6.49197 1.13117C6.57903 1.18674 6.66609 1.24231 6.75579 1.29957C7.13452 1.52656 7.53565 1.70648 7.93849 1.89172C8.22695 2.11 8.22695 2.11 8.40002 2.32828C8.40002 2.47234 8.40002 2.6164 8.40002 2.76483C7.71413 2.7691 7.02824 2.77166 6.34233 2.77392C6.14977 2.77514 5.9572 2.77636 5.7588 2.77762C4.68001 2.78029 3.62428 2.75034 2.55387 2.61931C2.41926 2.32828 2.41926 2.32828 2.40002 1.89172C2.60194 1.57385 2.83404 1.29695 3.08151 1.00953C3.35411 0.691397 3.57259 0.356566 3.78464 0Z" fill="#D0D0D0"/>
<path d="M4.16 39V31.46H0.988V29.9H9.113V31.46H5.85V39H4.16ZM19.9985 39.078C19.1491 39.078 18.3995 38.9003 17.7495 38.545C17.0995 38.181 16.5881 37.6913 16.2155 37.076C15.8515 36.452 15.6695 35.7457 15.6695 34.957V29.887H17.3725V34.879C17.3725 35.3817 17.4895 35.8323 17.7235 36.231C17.9575 36.621 18.2738 36.933 18.6725 37.167C19.0798 37.3923 19.5218 37.505 19.9985 37.505C20.5185 37.505 20.9821 37.3923 21.3895 37.167C21.7968 36.933 22.1175 36.621 22.3515 36.231C22.5855 35.8323 22.7025 35.3817 22.7025 34.879V29.887H24.3405V34.957C24.3405 35.7457 24.1541 36.452 23.7815 37.076C23.4175 37.6913 22.9105 38.181 22.2605 38.545C21.6191 38.9003 20.8651 39.078 19.9985 39.078ZM31.8458 39V29.9H33.4448L39.8928 37.011L39.6848 37.063C39.6502 36.7943 39.6155 36.517 39.5808 36.231C39.5548 35.945 39.5332 35.659 39.5158 35.373C39.4985 35.0783 39.4812 34.7793 39.4638 34.476C39.4552 34.1727 39.4465 33.8693 39.4378 33.566C39.4292 33.254 39.4248 32.942 39.4248 32.63V29.9H41.1018V39H39.4768L33.0028 31.993L33.2628 31.902C33.2888 32.1707 33.3105 32.4307 33.3278 32.682C33.3538 32.9333 33.3798 33.1803 33.4058 33.423C33.4318 33.657 33.4492 33.891 33.4578 34.125C33.4752 34.3503 33.4882 34.5757 33.4968 34.801C33.5142 35.0263 33.5228 35.2517 33.5228 35.477V39H31.8458ZM47.8334 39V29.64H49.6014V39H47.8334ZM56.3341 39V29.9H57.9331L64.3811 37.011L64.1731 37.063C64.1384 36.7943 64.1037 36.517 64.0691 36.231C64.0431 35.945 64.0214 35.659 64.0041 35.373C63.9867 35.0783 63.9694 34.7793 63.9521 34.476C63.9434 34.1727 63.9347 33.8693 63.9261 33.566C63.9174 33.254 63.9131 32.942 63.9131 32.63V29.9H65.5901V39H63.9651L57.4911 31.993L57.7511 31.902C57.7771 32.1707 57.7987 32.4307 57.8161 32.682C57.8421 32.9333 57.8681 33.1803 57.8941 33.423C57.9201 33.657 57.9374 33.891 57.9461 34.125C57.9634 34.3503 57.9764 34.5757 57.9851 34.801C58.0024 35.0263 58.0111 35.2517 58.0111 35.477V39H56.3341ZM77.7426 39.13C77.0233 39.13 76.3473 39.026 75.7146 38.818C75.0906 38.6013 74.5403 38.2937 74.0636 37.895C73.587 37.4877 73.2143 36.9937 72.9456 36.413C72.677 35.8323 72.5426 35.1737 72.5426 34.437C72.5426 33.7783 72.677 33.1673 72.9456 32.604C73.223 32.032 73.6043 31.538 74.0896 31.122C74.575 30.6973 75.1426 30.368 75.7926 30.134C76.4513 29.9 77.1576 29.783 77.9116 29.783C78.5096 29.783 79.0686 29.8567 79.5886 30.004C80.1173 30.1427 80.581 30.329 80.9796 30.563C81.387 30.797 81.712 31.0483 81.9546 31.317L80.8886 32.487C80.6113 32.253 80.3166 32.058 80.0046 31.902C79.6926 31.7373 79.359 31.6073 79.0036 31.512C78.657 31.408 78.2886 31.356 77.8986 31.356C77.396 31.356 76.9236 31.434 76.4816 31.59C76.0483 31.746 75.6713 31.9627 75.3506 32.24C75.03 32.5173 74.7743 32.8423 74.5836 33.215C74.4016 33.5877 74.3106 33.995 74.3106 34.437C74.3106 34.9483 74.406 35.399 74.5966 35.789C74.7873 36.179 75.0473 36.504 75.3766 36.764C75.7146 37.024 76.1003 37.2233 76.5336 37.362C76.967 37.492 77.4133 37.557 77.8726 37.557C78.3146 37.557 78.7263 37.5093 79.1076 37.414C79.489 37.3187 79.8183 37.1843 80.0956 37.011C80.3816 36.8377 80.6026 36.634 80.7586 36.4C80.9233 36.166 80.997 35.9147 80.9796 35.646V35.412L81.2136 35.75H77.8206V34.255H82.6956C82.713 34.3763 82.726 34.4933 82.7346 34.606C82.7433 34.71 82.7476 34.8053 82.7476 34.892C82.7476 34.97 82.7476 35.0307 82.7476 35.074C82.7476 35.7327 82.6263 36.3133 82.3836 36.816C82.141 37.3187 81.7943 37.7433 81.3436 38.09C80.893 38.428 80.36 38.688 79.7446 38.87C79.138 39.0433 78.4706 39.13 77.7426 39.13Z" fill="#F1B83F"/>
</svg>
