<svg width="62" height="62" viewBox="0 0 62 62" fill="none" xmlns="http://www.w3.org/2000/svg">
<path d="M15.3628 59.7857C15.3628 58.5679 16.3622 57.5714 17.5836 57.5714H50.8959C54.5824 57.5714 57.5583 54.6043 57.5583 50.9286V11.0714C57.5583 7.39571 54.5824 4.42857 50.8959 4.42857H17.5836C16.3622 4.42857 15.3628 3.43214 15.3628 2.21429C15.3628 0.996428 16.3622 0 17.5836 0H50.8959C57.0253 0 62 4.96 62 11.0714V50.9286C62 57.04 57.0253 62 50.8959 62H17.5836C16.3622 62 15.3628 61.0036 15.3628 59.7857Z" fill="white"/>
<path d="M41.2582 33.2331L31.715 42.8131C30.8495 43.684 30.8495 45.113 31.715 45.9839C32.5806 46.8549 34.0008 46.8549 34.8664 45.9839L48.1827 32.5854C49.0482 31.7145 49.0482 30.2855 48.1827 29.4146L34.8664 16.016C34.0008 15.1451 32.5806 15.1451 31.715 16.016C30.8495 16.8869 30.8495 18.3159 31.715 19.1868L41.2582 28.7669H2.21938C0.998722 28.7669 0 29.7718 0 31C0 32.2282 0.998722 33.2331 2.21938 33.2331H41.2582Z" fill="white"/>
</svg>
