<svg width="81" height="81" viewBox="0 0 81 81" fill="none" xmlns="http://www.w3.org/2000/svg">
<path d="M40.5 40.5C45.8706 40.5 51.0213 38.3665 54.8189 34.5689C58.6165 30.7713 60.75 25.6206 60.75 20.25C60.75 14.8794 58.6165 9.7287 54.8189 5.93109C51.0213 2.13348 45.8706 0 40.5 0C35.1294 0 29.9787 2.13348 26.1811 5.93109C22.3835 9.7287 20.25 14.8794 20.25 20.25C20.25 25.6206 22.3835 30.7713 26.1811 34.5689C29.9787 38.3665 35.1294 40.5 40.5 40.5ZM54 20.25C54 23.8304 52.5777 27.2642 50.0459 29.7959C47.5142 32.3277 44.0804 33.75 40.5 33.75C36.9196 33.75 33.4858 32.3277 30.9541 29.7959C28.4223 27.2642 27 23.8304 27 20.25C27 16.6696 28.4223 13.2358 30.9541 10.7041C33.4858 8.17232 36.9196 6.75 40.5 6.75C44.0804 6.75 47.5142 8.17232 50.0459 10.7041C52.5777 13.2358 54 16.6696 54 20.25ZM81 74.25C81 81 74.25 81 74.25 81H6.75C6.75 81 0 81 0 74.25C0 67.5 6.75 47.25 40.5 47.25C74.25 47.25 81 67.5 81 74.25ZM74.25 74.223C74.2432 72.5625 73.2105 67.5675 68.634 62.991C64.233 58.59 55.9508 54 40.5 54C25.0425 54 16.767 58.59 12.366 62.991C7.7895 67.5675 6.7635 72.5625 6.75 74.223H74.25Z" fill="white"/>
</svg>
