<svg width="202" height="60" viewBox="0 0 202 60" fill="none" xmlns="http://www.w3.org/2000/svg">
<path d="M132.15 13.4125C132.526 13.4088 132.902 13.4051 133.289 13.4013C133.903 13.3989 133.903 13.3989 134.529 13.3964C134.947 13.3942 135.365 13.392 135.795 13.3898C136.681 13.3861 137.566 13.3836 138.452 13.3821C139.81 13.3784 141.168 13.3665 142.525 13.3544C143.384 13.3519 144.243 13.3499 145.102 13.3484C145.509 13.3436 145.917 13.3389 146.337 13.334C146.716 13.3352 147.094 13.3363 147.484 13.3375C147.817 13.3361 148.15 13.3347 148.494 13.3333C149.523 13.504 149.835 13.7807 150.46 14.6269C151.655 17.6592 152.211 20.8917 152.798 24.0943C153.054 25.3417 153.399 26.4314 153.873 27.6012C154.48 29.3041 154.87 31.0851 155.306 32.8414C155.534 33.7153 155.783 34.5838 156.062 35.442C156.362 36.3801 156.57 37.2578 156.734 38.2286C157.083 40.1286 157.569 41.9745 158.07 43.8373C158.545 45.6522 158.891 47.4687 159.197 49.3212C159.543 51.414 160.036 53.2839 160.956 55.1916C161.374 56.5449 161.283 57.7716 161.242 59.1892C159.848 59.2227 158.454 59.2432 157.059 59.2613C156.466 59.2757 156.466 59.2757 155.861 59.2905C155.48 59.2942 155.099 59.2979 154.707 59.3018C154.181 59.3108 154.181 59.3108 153.645 59.3201C152.516 59.1652 152.022 58.8428 151.204 58.0368C150.854 57.0644 150.854 57.0644 150.623 55.9239C150.534 55.5089 150.445 55.0939 150.353 54.6664C150.266 54.2573 150.178 53.8483 150.088 53.4269C149.915 52.7694 149.737 52.113 149.554 51.458C149.032 49.502 148.59 47.5309 148.16 45.5516C148.093 45.248 148.027 44.9444 147.958 44.6315C147.704 43.444 147.486 42.354 147.486 41.1338C147.241 41.1338 146.995 41.1338 146.743 41.1338C146.675 40.7114 146.607 40.289 146.538 39.8538C146.073 37.0052 145.577 34.2132 144.792 31.4368C144.34 29.7265 144.013 27.9896 143.674 26.2522C143.375 24.8077 143.375 24.8077 142.653 22.6942C140.813 22.6942 138.973 22.6942 137.077 22.6942C136.533 24.0991 136.155 25.2539 135.845 26.7039C135.703 27.3568 135.703 27.3568 135.557 28.0229C135.374 28.8771 135.192 29.7316 135.01 30.5862C134.194 34.4092 133.376 38.1897 132.212 41.9171C131.374 44.7207 130.724 47.4143 130.756 50.3536C131.124 50.3592 131.492 50.3648 131.871 50.3706C133.233 50.3928 134.595 50.4225 135.957 50.4544C136.547 50.4672 137.137 50.478 137.727 50.4867C138.574 50.4995 139.421 50.5196 140.269 50.5412C140.533 50.5436 140.798 50.5461 141.07 50.5486C141.814 50.5716 141.814 50.5716 143.025 50.7377C143.801 51.9412 143.861 52.217 143.854 53.5859C143.853 53.9098 143.853 54.2336 143.852 54.5673C143.847 54.9041 143.843 55.2408 143.838 55.5877C143.838 56.0973 143.838 56.0973 143.837 56.6172C143.821 59.1353 143.821 59.1353 143.397 59.5734C142.875 59.6204 142.352 59.6417 141.828 59.6523C141.327 59.6637 141.327 59.6637 140.815 59.6755C140.449 59.6819 140.082 59.6883 139.705 59.6949C139.326 59.7029 138.947 59.7109 138.557 59.7191C137.749 59.7358 136.941 59.7516 136.132 59.7665C134.921 59.7889 133.709 59.8141 132.498 59.8397C128.818 59.9152 125.139 59.9749 121.459 59.9921C121.161 59.9946 120.864 59.9972 120.557 59.9999C119.867 60.0008 119.177 59.9814 118.488 59.9575C118.116 59.5734 118.116 59.5734 118.08 58.7796C118.084 58.4631 118.089 58.1467 118.093 57.8207C118.096 57.5032 118.1 57.1858 118.103 56.8588C118.107 56.6136 118.112 56.3685 118.116 56.116C118.362 56.116 118.607 56.116 118.86 56.116C118.874 55.8565 118.888 55.597 118.902 55.3296C118.926 54.987 118.951 54.6443 118.976 54.2912C118.997 53.9525 119.019 53.6138 119.041 53.2648C119.232 52.2744 119.232 52.2744 119.759 51.5556C120.56 50.4417 120.795 49.2574 121.09 47.9286C121.153 47.6608 121.215 47.3931 121.279 47.1172C121.82 44.7524 122.282 42.3727 122.721 39.9858C122.949 38.8289 122.949 38.8289 123.321 37.6764C123.566 37.6764 123.812 37.6764 124.065 37.6764C124.072 37.3191 124.072 37.3191 124.081 36.9546C124.209 34.4817 124.732 32.3948 125.547 30.0704C126.365 27.6555 126.824 25.1977 127.25 22.6808C127.591 20.7328 128.094 19.1128 128.898 17.316C129.108 16.6948 129.31 16.0709 129.502 15.4432C130.071 13.578 130.234 13.4276 132.15 13.4125Z" fill="white"/>
<path d="M192.657 8.8511C195.606 10.5584 197.704 13.8417 199.364 17.2556C199.614 18.6661 199.614 18.6661 199.697 19.7632C199.917 19.7632 200.137 19.7632 200.363 19.7632C200.363 20.4528 200.363 21.1424 200.363 21.8529C199.017 21.9381 197.672 21.9899 196.324 22.0357C195.753 22.0725 195.753 22.0725 195.171 22.11C192.377 22.1813 192.377 22.1813 191.366 21.2097C190.848 20.4162 190.848 20.4162 190.449 19.6195C189.734 18.4205 188.839 18.3477 187.704 18.0914C187.704 17.8156 187.704 17.5398 187.704 17.2556C186.76 17.2214 185.817 17.1967 184.873 17.1772C184.609 17.1667 184.346 17.1562 184.074 17.1454C181.848 17.111 180.09 17.6229 178.21 19.2146C177.476 20.6353 177.532 21.8782 177.711 23.5246C178.005 24.6925 178.168 25.0525 179.022 25.6404C179.249 25.7697 179.476 25.899 179.709 26.0322C179.861 26.2365 180.014 26.4407 180.17 26.6511C180.787 27.3786 181.197 27.5541 182.013 27.8068C182.265 27.8886 182.517 27.9703 182.777 28.0546C183.042 28.1371 183.308 28.2197 183.582 28.3048C185.509 28.9327 187.27 29.625 189.062 30.7291C189.783 31.0871 190.388 31.1675 191.161 31.2303C194.481 31.5502 197.398 34.0537 199.713 36.9019C201.532 39.5951 201.719 42.163 201.551 45.5594C201.333 48.1497 200.632 50.4672 199.697 52.7802C199.494 53.333 199.494 53.333 199.287 53.8969C198.625 54.99 198.028 55.3353 197.015 55.8098C196.334 56.1389 195.71 56.533 195.066 56.9628C194.845 57.1078 194.624 57.2527 194.396 57.402C193.946 57.6992 193.498 57.9996 193.051 58.3032C191.508 59.3055 190.113 59.7771 188.371 59.8851C188.088 59.9033 187.804 59.9215 187.513 59.9402C182.195 60.1957 177.974 59.7597 173.38 56.1237C173.023 55.8565 172.665 55.5893 172.297 55.3139C170.124 53.2695 168.833 50.4141 167.717 47.347C167.717 46.9333 167.717 46.5195 167.717 46.0932C167.497 46.0932 167.277 46.0932 167.05 46.0932C167.036 45.2575 167.037 44.4213 167.05 43.5856C167.831 42.6062 169.71 43.0502 170.756 43.037C171.225 43.0189 171.225 43.0189 171.704 43.0003C173.783 42.9766 175.029 43.2697 176.711 44.8394C177.184 45.5838 177.184 45.5838 177.44 46.3022C178.398 48.623 179.288 49.5311 181.254 50.4242C182.68 50.9066 184.092 50.8878 185.56 50.8734C185.862 50.8817 186.164 50.8901 186.475 50.8987C188.863 50.8965 190.077 50.1835 192.007 48.4441C192.563 47.399 192.5 46.4976 192.493 45.2573C192.496 44.8177 192.498 44.3781 192.501 43.9252C192.445 42.7622 192.445 42.7622 191.948 42.0314C191.309 41.4403 190.669 40.9328 189.974 40.4511C189.736 40.283 189.497 40.1149 189.252 39.9417C187.048 38.6025 184.881 37.8857 182.478 37.3426C177.101 36.0307 173.465 34.6765 170.049 28.9578C169.201 27.1247 169.26 25.4934 169.257 23.4201C169.249 23.0769 169.241 22.7338 169.233 22.3802C169.223 19.8382 169.711 18.1801 170.715 16.0017C170.931 15.3552 170.931 15.3552 171.152 14.6957C171.796 13.3187 172.519 12.5487 173.505 11.5644C174.095 10.9881 174.095 10.9881 174.546 10.0461C175.314 8.9211 176.253 8.83737 177.377 8.47888C177.652 8.26876 177.927 8.05865 178.21 7.84218C182.36 5.64579 188.55 6.84335 192.657 8.8511Z" fill="white"/>
<path d="M3.23359 13.3826C10.2348 13.303 17.2321 13.2746 24.227 13.6573C24.812 13.6893 25.3971 13.7194 25.9822 13.7475C26.7972 13.7877 27.6114 13.8359 28.4258 13.8869C28.8875 13.9139 29.3492 13.9409 29.8249 13.9688C30.3564 14.0719 30.3564 14.0719 30.8987 14.177C31.7005 15.5066 31.7003 15.8895 31.6716 17.435C31.6624 18.0674 31.6624 18.0674 31.6531 18.7126C31.6427 19.1682 31.6322 19.6237 31.6215 20.0931C31.6133 20.5618 31.6052 21.0305 31.5968 21.5135C31.5789 22.5062 31.5591 23.4988 31.5377 24.4914C31.5052 26.0081 31.4783 27.5248 31.4524 29.0416C31.4342 30.0059 31.4158 30.9702 31.3969 31.9345C31.3845 32.6142 31.3845 32.6142 31.3719 33.3076C31.3624 33.733 31.3529 34.1584 31.3432 34.5967C31.3354 34.9688 31.3277 35.341 31.3197 35.7244C31.2531 36.9039 31.0834 38.037 30.8987 39.2004C30.8648 39.8923 30.8437 40.5851 30.8355 41.2779C30.6727 49.4024 30.6727 49.4024 29.1023 52.7051C28.8651 52.7051 28.628 52.7051 28.3837 52.7051C28.2503 53.1721 28.2503 53.1721 28.1142 53.6485C27.5856 54.8758 27.2795 54.9042 26.228 55.4855C26.1094 55.8132 25.9908 56.1409 25.8687 56.4785C25.5094 57.4715 25.5094 57.4715 24.7684 57.9431C24.4238 58.1029 24.4238 58.1029 24.0722 58.2659C23.9537 58.528 23.8351 58.7902 23.713 59.0603C21.6073 59.8085 19.5756 59.9467 17.3805 59.9788C16.9946 59.9892 16.9946 59.9892 16.6009 59.9999C14.0619 59.9967 12.1194 59.0255 10.105 57.3225C9.69507 56.9861 9.69507 56.9861 9.27691 56.6429C8.49904 55.7387 8.3815 55.1201 8.26361 53.8967C8.02648 53.8967 7.78935 53.8967 7.54503 53.8967C7.40424 53.5117 7.26344 53.1266 7.11838 52.7299C6.5393 51.2199 5.81945 49.8275 5.0609 48.4197C4.63748 47.4667 4.46071 46.6006 4.31145 45.5556C4.07432 45.5556 3.83719 45.5556 3.59287 45.5556C3.46088 44.8643 3.46088 44.8643 3.32621 44.1592C2.92094 42.3654 2.22548 40.8914 1.39224 39.2997C0 36.6315 0 36.6315 0 34.8312C7.57497 35.4362 7.57497 35.4362 10.4193 38.406C10.9141 39.0537 11.3992 39.7115 11.8565 40.392C12.2122 40.5886 12.2122 40.5886 12.5751 40.7892C13.4006 43.048 13.7973 45.4713 14.2017 47.8565C14.3974 48.8667 14.695 49.7833 15.0901 50.7191C15.5982 50.8079 16.1075 50.8892 16.617 50.9674C16.9005 51.0135 17.1839 51.0595 17.476 51.107C18.4531 51.1177 18.9502 50.914 19.7608 50.3219C20.0501 49.5077 20.0501 49.5077 20.1201 48.7331C20.4758 48.7331 20.8315 48.7331 21.1979 48.7331C21.3165 42.3105 21.4351 35.8878 21.5572 29.2705C24.4315 27.6817 24.4315 27.6817 25.4869 27.2845C25.7315 27.1534 25.976 27.0223 26.228 26.8873C26.4641 26.0834 26.4641 26.0834 26.5873 25.2985C26.2283 25.2458 25.8694 25.193 25.4996 25.1387C25.036 25.0686 24.5724 24.9984 24.0947 24.9261C23.632 24.857 23.1693 24.7879 22.6926 24.7167C21.5572 24.5041 21.5572 24.5041 21.1979 24.1069C20.518 24.0333 19.8364 23.9786 19.1545 23.9331C17.5727 23.8039 16.2086 23.5961 14.7308 22.9153C14.7308 22.6532 14.7308 22.391 14.7308 22.1209C14.4121 22.0226 14.0935 21.9243 13.7652 21.823C12.5142 21.3012 11.8011 20.6751 10.7786 19.7378C9.95362 19.1768 9.11307 18.6645 8.26361 18.149C8.26361 17.8868 8.26361 17.6247 8.26361 17.3546C8.03389 17.2645 7.80417 17.1743 7.56749 17.0815C6.06003 16.3673 4.65672 15.4722 3.23359 14.5742C3.23359 14.181 3.23359 13.7877 3.23359 13.3826Z" fill="white"/>
<path d="M41.496 13.43C41.8361 13.422 42.1762 13.414 42.5266 13.4058C45.6612 13.3868 45.6612 13.3868 47.1043 14.6874C47.4162 14.9545 47.4162 14.9545 47.7344 15.227C48.3094 16.0422 48.3495 16.6451 48.4173 17.6618C48.4524 18.1309 48.4524 18.1309 48.4883 18.6094C48.5016 18.8473 48.5149 19.0852 48.5286 19.3303C48.8811 19.3303 49.2336 19.3303 49.5968 19.3303C50.131 20.0815 50.131 20.0815 50.6651 21.0956C50.8519 21.4487 51.0387 21.8019 51.2312 22.1657C51.6346 22.9961 51.9785 23.8011 52.2897 24.6746C52.7433 25.9614 52.7433 25.9614 53.7141 26.8993C54.6794 27.9482 54.9598 28.7434 55.2942 30.1639C55.5292 30.1639 55.7642 30.1639 56.0063 30.1639C56.2414 31.0576 56.4764 31.9514 56.7185 32.8722C57.1885 32.8722 57.6586 32.8722 58.1428 32.8722C58.2971 32.4732 58.4513 32.0742 58.6102 31.6631C60.032 28.0898 60.032 28.0898 60.9428 27.1789C61.9063 26.0593 62.4458 24.8131 63.039 23.4413C64.0004 21.2965 64.9795 19.1686 66.0434 17.0814C66.2615 16.648 66.4795 16.2146 66.7041 15.768C67.47 14.5804 67.9937 14.1604 69.1814 13.5267C70.1681 13.3949 70.1681 13.3949 71.2247 13.4133C71.7945 13.4189 71.7945 13.4189 72.3758 13.4247C72.9648 13.4393 72.9648 13.4393 73.5657 13.4541C73.9653 13.4594 74.3649 13.4646 74.7765 13.47C75.7603 13.4837 76.7438 13.5027 77.7274 13.5267C77.8321 15.2596 77.7319 16.1293 76.7037 17.4683C76.5137 17.7212 76.3236 17.9741 76.1278 18.2346C75.9507 18.4685 75.7735 18.7024 75.5909 18.9434C75.3559 19.3265 75.1209 19.7095 74.8788 20.1042C74.6437 20.1042 74.4087 20.1042 74.1666 20.1042C73.9316 20.8703 73.6966 21.6363 73.4544 22.4256C73.2194 22.4256 72.9844 22.4256 72.7423 22.4256C72.6436 22.7019 72.5449 22.9783 72.4432 23.2629C71.2891 26.3283 69.8155 29.2252 68.269 32.0742C68.1395 32.3166 68.01 32.5589 67.8766 32.8086C67.0349 34.3337 66.0968 35.5021 64.9084 36.7413C62.9883 40.272 62.3762 44.0206 62.3032 48.0539C62.2921 48.5651 62.2921 48.5651 62.2808 49.0866C62.2576 50.1706 62.2365 51.2546 62.2156 52.3387C62.2002 53.0755 62.1846 53.8123 62.169 54.5491C62.1309 56.3513 62.0948 58.1536 62.0598 59.956C60.6429 59.9672 59.226 59.9741 57.809 59.9802C57.2021 59.985 57.2021 59.985 56.5829 59.99C56.1985 59.9912 55.8141 59.9925 55.418 59.9938C54.8837 59.9968 54.8837 59.9968 54.3387 59.9999C53.5138 59.956 53.5138 59.956 53.1577 59.5691C53.1137 58.41 53.0914 57.2585 53.0826 56.099C53.0726 55.3755 53.0624 54.6521 53.052 53.9286C53.0373 52.7868 53.0242 51.645 53.0148 50.5031C53.0049 49.402 52.9885 48.3011 52.9713 47.2C52.9701 46.8638 52.969 46.5275 52.9678 46.181C52.9133 43.1875 52.3726 40.6744 50.6651 38.289C50.6651 37.7783 50.6651 37.2675 50.6651 36.7413C50.1951 36.7413 49.725 36.7413 49.2408 36.7413C49.0058 35.8476 48.7707 34.9538 48.5286 34.033C48.2936 34.033 48.0586 34.033 47.8164 34.033C47.6989 33.5222 47.5814 33.0115 47.4603 32.4853C47.2253 32.4853 46.9903 32.4853 46.7482 32.4853C46.7115 32.2379 46.6747 31.9906 46.6369 31.7357C46.5561 31.4723 46.4753 31.209 46.3921 30.9377C45.8633 30.7462 45.8633 30.7462 45.3238 30.5508C44.9678 29.7044 44.9678 29.7044 44.6117 28.6162C43.9328 26.9517 43.9328 26.9517 42.8313 25.6176C41.8654 24.4369 41.6682 23.2262 41.3388 21.7077C41.1963 21.297 41.1963 21.297 41.0508 20.878C40.6983 20.7503 40.3458 20.6226 39.9826 20.4911C39.5138 19.6341 39.5138 19.6341 39.0701 18.5807C38.4428 17.0937 38.4428 17.0937 37.49 15.8481C37.4233 14.8567 37.4233 14.8567 37.49 13.9136C38.3261 13.0052 40.3741 13.4364 41.496 13.43Z" fill="white"/>
<path d="M85.149 13.3333C90.1541 13.3333 95.1591 13.3333 100.316 13.3333C100.705 14.8725 100.705 14.8725 100.194 15.9307C99.9777 16.2164 99.7612 16.5021 99.538 16.7965C99.2814 16.7965 99.0247 16.7965 98.7603 16.7965C98.7603 17.0504 98.7603 17.3044 98.7603 17.5661C98.4715 17.7328 98.1828 17.8994 97.8853 18.0711C96.6456 18.8238 96.0499 19.4334 95.2602 20.6445C95.1175 21.6905 95.0623 22.5759 95.0836 23.6182C95.0834 23.9112 95.0832 24.2042 95.0829 24.5062C95.084 25.4703 95.0961 26.434 95.1083 27.3981C95.1112 28.0683 95.1134 28.7385 95.115 29.4087C95.1209 31.1693 95.1362 32.9297 95.1534 34.6903C95.1693 36.4881 95.1764 38.2859 95.1843 40.0838C95.2009 43.609 95.2275 47.1341 95.2602 50.6591C95.4972 50.6623 95.7342 50.6654 95.9784 50.6686C98.4387 50.7016 100.899 50.7399 103.359 50.7813C104.278 50.796 105.197 50.8094 106.116 50.8215C107.434 50.839 108.753 50.8613 110.072 50.8846C110.484 50.8891 110.897 50.8935 111.322 50.8981C111.704 50.9057 112.085 50.9134 112.478 50.9213C112.984 50.9289 112.984 50.9289 113.499 50.9368C114.316 51.0439 114.316 51.0439 115.094 51.8136C115.194 52.5599 115.194 52.5599 115.197 53.461C115.199 53.9469 115.199 53.9469 115.2 54.4425C115.197 54.7813 115.194 55.1201 115.191 55.4692C115.195 55.9774 115.195 55.9774 115.2 56.4958C115.199 56.8197 115.198 57.1436 115.197 57.4774C115.196 57.7747 115.195 58.0721 115.194 58.3785C115.094 59.1248 115.094 59.1248 114.316 59.8944C113.135 59.9921 113.135 59.9921 111.598 59.994C111.179 59.996 111.179 59.996 110.751 59.9981C109.825 60.0015 108.899 59.9992 107.972 59.9966C107.33 59.9971 106.688 59.9979 106.045 59.9989C104.699 60 103.352 59.9983 102.005 59.9947C100.276 59.9904 98.547 59.9929 96.8181 59.9975C95.4916 60.0003 94.1652 59.9994 92.8387 59.9974C92.2011 59.9969 91.5635 59.9975 90.926 59.9993C90.0358 60.0013 89.1458 59.9983 88.2556 59.994C87.7484 59.9934 87.2413 59.9928 86.7187 59.9921C85.5379 59.8944 85.5379 59.8944 84.7601 59.1248C84.6666 58.2288 84.6666 58.2288 84.6718 57.0946C84.6719 56.671 84.672 56.2473 84.672 55.8108C84.678 55.1224 84.678 55.1224 84.6842 54.42C84.6853 53.9513 84.6864 53.4826 84.6875 52.9998C84.6919 51.498 84.7016 49.9964 84.7115 48.4946C84.7154 47.4785 84.719 46.4624 84.7222 45.4463C84.7307 42.951 84.7442 40.4558 84.7601 37.9606C82.4501 37.9606 80.1401 37.9606 77.7601 37.9606C78.2105 35.7321 78.9679 34.4768 80.8499 33.2244C81.2695 32.9684 81.2695 32.9684 81.6976 32.7072C83.7316 31.3884 85.3925 29.8099 87.0935 28.1001C87.3898 27.8114 87.686 27.5227 87.9913 27.2252C88.2725 26.9455 88.5537 26.6657 88.8435 26.3775C89.0962 26.1262 89.3488 25.8749 89.6091 25.6159C90.3327 24.8234 90.3327 24.8234 90.5935 23.3381C88.6685 23.3381 86.7435 23.3381 84.7601 23.3381C84.7497 21.8871 84.7419 20.4361 84.7358 18.985C84.7326 18.5726 84.7293 18.1601 84.726 17.7352C84.7247 17.3396 84.7234 16.944 84.7222 16.5364C84.7201 16.1717 84.7181 15.807 84.716 15.4312C84.7601 14.4877 84.7601 14.4877 85.149 13.3333Z" fill="white"/>
<path d="M9.08314 0C11.2378 0.150961 12.5207 0.715556 14.2754 1.87717C14.7098 2.1574 15.1449 2.43663 15.5807 2.71481C15.7897 2.84818 15.9986 2.98155 16.2139 3.11896C17.1228 3.66375 18.0856 4.09555 19.0524 4.54014C19.7447 5.064 19.7447 5.064 20.1601 5.58786C20.1601 5.93361 20.1601 6.27936 20.1601 6.63559C18.5139 6.64583 16.8678 6.65197 15.2216 6.65742C14.7594 6.66034 14.2973 6.66327 13.8211 6.66628C11.232 6.67269 8.69828 6.60081 6.12929 6.28635C5.80622 5.58786 5.80622 5.58786 5.76006 4.54014C6.24465 3.77725 6.80169 3.11269 7.39564 2.42286C8.04987 1.65935 8.57422 0.855758 9.08314 0Z" fill="white"/>
</svg>
