<svg width="93" height="77" viewBox="0 0 93 77" fill="none" xmlns="http://www.w3.org/2000/svg">
<g clip-path="url(#clip0_912_4940)">
<path d="M35.077 11.0687C35.3725 12.2755 35.6316 13.4897 35.8819 14.7081C35.8981 14.787 35.9143 14.8658 35.931 14.947C35.9991 15.2786 36.0672 15.6102 36.1354 15.9419C36.7417 18.8927 37.3684 21.8368 38.0479 24.7693C38.0791 24.9055 38.1104 25.0418 38.1426 25.1821C39.0641 29.8523 39.0641 29.8523 41.8035 33.3791C44.061 34.6942 47.4442 34.6366 49.8872 33.9506C51.2775 33.4567 52.3259 32.5171 53.0215 31.1308C53.9099 29.0441 54.4036 26.7851 54.9139 24.5667C54.9701 24.3224 55.0268 24.0783 55.0835 23.8342C55.83 20.6191 56.5064 17.3877 57.1664 14.1511C57.185 14.0603 57.2035 13.9695 57.2226 13.876C57.3096 13.449 57.3964 13.0218 57.4827 12.5946C57.5129 12.4458 57.5431 12.2969 57.5742 12.1436C57.6004 12.0137 57.6266 11.8839 57.6536 11.7501C57.7231 11.4296 57.7231 11.4296 57.8352 11.0687C58.0968 11.062 58.3583 11.0573 58.6199 11.0537C58.7656 11.0509 58.9113 11.0481 59.0614 11.0452C59.5667 11.0524 60.0609 11.1206 60.5613 11.1905C60.6443 11.2018 60.7273 11.2132 60.8128 11.2249C61.0161 11.2528 61.2194 11.281 61.4227 11.3093C61.2423 15.3425 60.9977 19.3713 60.7525 23.4004C60.7359 23.6728 60.7194 23.9452 60.7029 24.2176C60.3965 29.2672 60.0762 34.3154 59.7208 39.3614C59.6922 39.7678 59.6637 40.1743 59.6353 40.5807C59.5908 41.2144 59.5458 41.848 59.5003 42.4816C59.484 42.7093 59.4678 42.937 59.4517 43.1647C59.3751 44.2455 59.2915 45.3252 59.1831 46.4029C59.1709 46.5339 59.1709 46.5339 59.1585 46.6676C59.1366 46.8738 59.1035 47.0786 59.0684 47.2828C58.6313 47.5173 58.0995 47.4883 57.618 47.5309C57.4981 47.5417 57.3782 47.5524 57.2547 47.5635C56.1758 47.6538 55.1048 47.6683 54.0235 47.6437C53.8016 46.9685 53.6136 46.2878 53.4406 45.5965C52.8379 43.1519 52.8379 43.1519 52.0896 40.7558C52.0568 40.6602 52.0241 40.5647 51.9903 40.4662C51.6059 39.4193 51.0146 38.5583 50.0576 38.0638C47.9476 37.3007 44.5426 37.2292 42.4924 38.2217C41.3485 38.973 40.8831 40.5103 40.4863 41.8085C40.4492 41.9283 40.4121 42.048 40.3739 42.1714C39.9728 43.5005 39.6467 44.8517 39.3239 46.2046C39.3031 46.2913 39.2824 46.378 39.261 46.4672C39.2042 46.7047 39.148 46.9424 39.0919 47.18C39.0008 47.5234 39.0008 47.5234 38.8887 47.6437C38.586 47.6597 38.2877 47.6665 37.9848 47.6663C37.892 47.6662 37.7993 47.6662 37.7037 47.6662C36.8976 47.6586 36.0974 47.6024 35.2942 47.5309C35.1762 47.5205 35.0582 47.51 34.9366 47.4993C34.098 47.4192 34.098 47.4192 33.8438 47.2828C33.7927 46.984 33.7565 46.696 33.7286 46.3945C33.7194 46.3027 33.7101 46.2108 33.7006 46.1163C33.598 45.0681 33.5198 44.0178 33.4448 42.967C33.4284 42.7399 33.412 42.5129 33.3956 42.2858C33.3505 41.6599 33.3062 41.034 33.2621 40.408C33.2435 40.1432 33.2248 39.8785 33.206 39.6137C32.7875 33.6975 32.4272 27.7773 32.0711 21.8565C32.05 21.5049 32.0288 21.1533 32.0076 20.8018C31.9201 19.348 31.833 17.8942 31.7464 16.4403C31.7278 16.1292 31.7092 15.8181 31.6906 15.507C31.6616 15.0234 31.6329 14.5398 31.6043 14.0561C31.5939 13.8801 31.5834 13.7041 31.5728 13.5281C31.5584 13.2883 31.5443 13.0485 31.5303 12.8087C31.5223 12.6751 31.5144 12.5415 31.5062 12.4038C31.4898 12.0383 31.4865 11.6752 31.4895 11.3093C32.6965 11.1164 33.8565 11.0435 35.077 11.0687Z" fill="white"/>
<path d="M68.8355 11.432C71.6319 14.5851 71.4259 19.4036 71.4215 23.4534C71.4214 23.5793 71.4212 23.7051 71.4211 23.8348C71.3881 42.2493 71.3881 42.2493 67.1893 47.0572C63.8337 50.4843 58.4891 50.5635 54.1356 50.7718C54.0331 50.7769 53.9306 50.782 53.8251 50.7873C51.4108 50.9042 48.9984 50.9162 46.5822 50.9147C46.4826 50.9147 46.383 50.9147 46.2804 50.9147C29.7019 50.9116 29.7019 50.9116 25.9961 47.2828C25.8919 47.1874 25.8919 47.1874 25.7855 47.0901C24.702 46.034 24.1105 44.528 23.6418 43.0718C23.6053 42.9585 23.6053 42.9585 23.5679 42.8429C22.4501 39.2866 22.1462 35.4268 21.8271 31.7098C21.8176 31.6004 21.8081 31.491 21.7983 31.3783C21.5764 28.7978 21.4881 26.2249 21.4907 23.6338C21.4908 23.5086 21.4909 23.3834 21.491 23.2544C21.5039 14.3764 21.5039 14.3764 24.2519 11.2384C27.5994 7.85427 32.8978 7.89872 37.2071 7.57964C37.3167 7.57144 37.4264 7.56324 37.5394 7.55479C38.1757 7.50922 38.8119 7.48143 39.4493 7.45933C39.5919 7.45408 39.7345 7.44882 39.8814 7.44341C64.0756 6.56835 64.0756 6.56835 68.8355 11.432ZM44.8238 9.14684C35.0413 8.78533 35.0413 8.78533 26.4446 12.6328C23.7605 15.7165 24.1558 20.631 24.1604 24.5512C24.1604 24.6478 24.1604 24.7445 24.1604 24.844C24.1608 27.9954 24.2494 31.1112 24.6171 34.2416C24.6511 34.5323 24.6838 34.8233 24.7162 35.1142C25.4091 41.3989 25.4091 41.3989 28.7218 46.4105C31.6353 48.6951 35.8845 48.6771 39.3372 48.8468C39.4377 48.8519 39.5382 48.857 39.6418 48.8623C41.8737 48.9725 44.1032 48.9913 46.337 48.9897C46.4709 48.9897 46.4709 48.9897 46.6075 48.9897C49.5694 48.9891 52.5253 48.9542 55.4809 48.7265C55.6015 48.7173 55.6015 48.7173 55.7245 48.708C60.4494 48.3697 60.4494 48.3697 64.5618 46.0796C64.6421 46.0069 64.7225 45.9342 64.8053 45.8592C67.481 43.2158 67.8146 38.4606 68.2277 34.8245C68.25 34.6298 68.2725 34.4351 68.2955 34.2404C68.6755 31.0128 68.7515 27.8001 68.7519 24.5512C68.752 24.4559 68.7521 24.3607 68.7522 24.2625C68.899 18.0523 68.899 18.0523 66.4676 12.6328C62.7447 8.68471 55.0798 9.32278 50.2048 9.19634C50.1098 9.19383 50.0148 9.19133 49.9169 9.18874C48.2185 9.14452 46.5227 9.12377 44.8238 9.14684Z" fill="white"/>
<path d="M0.547302 57.9906C3.32201 57.9906 6.09672 57.9906 8.95551 57.9906C8.95551 58.5464 8.95551 59.1023 8.95551 59.6749C8.55772 59.7259 8.15994 59.7768 7.76215 59.8277C7.35389 59.885 7.35389 59.885 7.04965 60.2765C7.01265 60.9912 6.97565 61.7058 6.93754 62.4421C9.00932 62.4421 11.0811 62.4421 13.2157 62.4421C13.289 60.5699 13.289 60.5699 12.7672 59.9156C12.4692 59.8415 12.2069 59.7942 11.9054 59.7652C11.8267 59.7559 11.748 59.7466 11.6669 59.737C11.4733 59.7144 11.2795 59.6944 11.0856 59.6749C11.0856 59.1191 11.0856 58.5633 11.0856 57.9906C13.8973 57.9906 16.709 57.9906 19.6059 57.9906C19.6059 58.5464 19.6059 59.1023 19.6059 59.6749C19.4884 59.6867 19.3709 59.6985 19.2499 59.7107C19.0953 59.7287 18.9407 59.7469 18.7861 59.7652C18.7087 59.7726 18.6313 59.7801 18.5516 59.7877C18.0955 59.8423 18.0955 59.8423 17.7337 60.1221C17.5573 60.4545 17.5459 60.661 17.5462 61.0421C17.5455 61.171 17.5448 61.2999 17.5441 61.4326C17.5451 61.5711 17.5461 61.7096 17.5472 61.8523C17.5471 61.995 17.5471 62.1377 17.547 62.2846C17.5473 62.5861 17.5484 62.8876 17.5502 63.1891C17.5529 63.6514 17.5525 64.1137 17.5518 64.576C17.5524 64.8687 17.5532 65.1615 17.5542 65.4542C17.5541 65.6623 17.5541 65.6623 17.5539 65.8746C17.555 66.0031 17.556 66.1316 17.5571 66.264C17.5577 66.3771 17.5582 66.4903 17.5587 66.6069C17.5704 66.9256 17.5704 66.9256 17.8121 67.2546C18.1196 67.3394 18.411 67.4047 18.723 67.4577C18.8498 67.481 18.8498 67.481 18.9792 67.5049C19.1879 67.5432 19.3969 67.5795 19.6059 67.6156C19.6059 68.1714 19.6059 68.7273 19.6059 69.2999C16.7942 69.2999 13.9825 69.2999 11.0856 69.2999C11.0856 68.7441 11.0856 68.1883 11.0856 67.6156C11.2125 67.5937 11.3394 67.5718 11.4701 67.5493C11.6362 67.5188 11.8023 67.4883 11.9684 67.4577C12.094 67.4364 12.094 67.4364 12.222 67.4147C12.4433 67.3729 12.6617 67.3146 12.8793 67.2546C13.2761 66.6817 13.2761 66.6817 13.2157 64.8484C11.1439 64.8484 9.0721 64.8484 6.93754 64.8484C6.8771 66.6817 6.8771 66.6817 7.27386 67.2546C7.56275 67.3393 7.83496 67.4044 8.1287 67.4577C8.24749 67.481 8.24749 67.481 8.36868 67.5049C8.56406 67.5431 8.75976 67.5795 8.95551 67.6156C8.95551 68.1714 8.95551 68.7273 8.95551 69.2999C6.1808 69.2999 3.40609 69.2999 0.547302 69.2999C0.547302 68.7441 0.547302 68.1883 0.547302 67.6156C0.674187 67.5937 0.801072 67.5718 0.931802 67.5493C1.09794 67.5188 1.26406 67.4883 1.43016 67.4577C1.55568 67.4364 1.55568 67.4364 1.68372 67.4147C1.90501 67.3729 2.12344 67.3146 2.34105 67.2546C2.58906 66.8554 2.59394 66.729 2.59606 66.264C2.59713 66.1355 2.5982 66.007 2.5993 65.8746C2.5992 65.7359 2.5991 65.5971 2.59899 65.4542C2.59947 65.3116 2.59995 65.1691 2.60045 65.0222C2.60109 64.7205 2.60115 64.4188 2.60066 64.1171C2.60031 63.655 2.60294 63.193 2.60578 62.7309C2.60603 62.4381 2.60611 62.1452 2.606 61.8523C2.60703 61.7138 2.60806 61.5753 2.60913 61.4326C2.60808 61.2393 2.60808 61.2393 2.60701 61.0421C2.60708 60.9289 2.60715 60.8156 2.60722 60.6989C2.55699 60.3372 2.4677 60.1743 2.22894 59.9156C1.93087 59.8415 1.66857 59.7942 1.3671 59.7652C1.28841 59.7559 1.20972 59.7466 1.12865 59.737C0.935056 59.7144 0.741195 59.6944 0.547302 59.6749C0.547302 59.1191 0.547302 58.5633 0.547302 57.9906Z" fill="white"/>
<path d="M37.3192 57.9906C38.3162 57.977 39.3131 57.9659 40.3101 57.9594C40.7731 57.9563 41.236 57.952 41.699 57.9452C42.1461 57.9387 42.5931 57.9351 43.0401 57.9335C43.2104 57.9324 43.3807 57.9302 43.551 57.927C43.7902 57.9226 44.0291 57.922 44.2683 57.9223C44.4042 57.921 44.5401 57.9196 44.6802 57.9182C45.2842 58.0349 45.6676 58.4542 46.0243 58.9832C46.0735 59.055 46.1228 59.1268 46.1735 59.2008C46.2252 59.2779 46.2768 59.3549 46.33 59.4343C46.4481 59.6069 46.5663 59.7794 46.6847 59.9518C46.7786 60.0892 46.7786 60.0892 46.8744 60.2293C47.2249 60.7381 47.5836 61.2402 47.9415 61.7428C48.0931 61.956 48.2446 62.1692 48.3961 62.3825C48.6367 62.7207 48.8773 63.0589 49.1179 63.3971C49.2854 63.6324 49.4528 63.8678 49.6202 64.1032C49.778 64.3251 49.9359 64.5469 50.0939 64.7686C50.2003 64.9184 50.2003 64.9184 50.309 65.0712C50.3715 65.159 50.4341 65.2469 50.4985 65.3375C50.6329 65.5309 50.7597 65.7304 50.8844 65.9312C50.89 65.1883 50.894 64.4454 50.8967 63.7025C50.8979 63.4499 50.8994 63.1972 50.9013 62.9446C50.9041 62.5811 50.9053 62.2177 50.9063 61.8542C50.9075 61.7415 50.9086 61.6288 50.9098 61.5127C50.9137 60.7453 50.9137 60.7453 50.6602 60.0359C50.4453 59.916 50.4453 59.916 50.1907 59.8855C50.1014 59.8691 50.0121 59.8526 49.9201 59.8357C49.787 59.8157 49.787 59.8157 49.6512 59.7953C49.5717 59.7819 49.4922 59.7686 49.4104 59.7549C49.2294 59.7255 49.048 59.6998 48.8664 59.675C48.8664 59.1191 48.8664 58.5633 48.8664 57.9906C51.0862 57.9906 53.306 57.9906 55.593 57.9906C55.593 58.5464 55.593 59.1023 55.593 59.675C54.9963 59.7513 54.9963 59.7513 54.3997 59.8277C53.9578 59.9265 53.9578 59.9265 53.6872 60.2765C53.6525 60.576 53.6381 60.8461 53.6387 61.1458C53.6375 61.2339 53.6364 61.3219 53.6352 61.4127C53.6318 61.7037 53.6308 61.9946 53.6298 62.2856C53.6279 62.4874 53.6259 62.6892 53.6237 62.891C53.6184 63.4221 53.615 63.9531 53.6121 64.4842C53.6088 65.0262 53.6035 65.5681 53.5985 66.11C53.5888 67.1733 53.5813 68.2366 53.575 69.3C52.821 69.3061 52.0669 69.3103 51.3129 69.3132C51.0565 69.3144 50.8001 69.316 50.5437 69.3181C50.1746 69.321 49.8057 69.3224 49.4366 69.3235C49.3224 69.3247 49.2082 69.3259 49.0905 69.3272C47.7777 69.3274 47.7777 69.3274 47.2702 68.7971C47.1551 68.6366 47.1551 68.6366 47.0377 68.4728C46.9504 68.3525 46.8631 68.2321 46.7732 68.1081C46.644 67.9239 46.644 67.9239 46.5122 67.7359C46.4376 67.6304 46.363 67.525 46.2862 67.4163C46.1259 67.1879 45.9664 66.9588 45.8075 66.7292C45.4118 66.1586 45.0085 65.5942 44.6063 65.0289C43.967 64.1296 43.331 63.2281 42.7004 62.3218C42.5837 62.1547 42.4669 61.9876 42.3501 61.8205C42.2897 61.7341 42.2293 61.6477 42.1671 61.5586C42.1211 61.4928 42.0751 61.4271 42.0278 61.3593C42.0221 62.1216 42.0182 62.8838 42.0155 63.646C42.0143 63.9053 42.0128 64.1647 42.0109 64.424C42.0081 64.7967 42.0069 65.1694 42.0059 65.5421C42.0047 65.658 42.0036 65.774 42.0024 65.8934C42.0024 66.0018 42.0023 66.1101 42.0023 66.2218C42.0016 66.3644 42.0016 66.3644 42.0008 66.51C42.032 66.8146 42.0906 67.0015 42.252 67.2546C42.564 67.3495 42.8448 67.4151 43.1629 67.4652C43.2474 67.4802 43.332 67.4953 43.4191 67.5108C43.6277 67.5476 43.8367 67.5819 44.0457 67.6156C44.0457 68.1714 44.0457 68.7273 44.0457 69.3C41.826 69.3 39.6062 69.3 37.3192 69.3C37.3192 68.7441 37.3192 68.1883 37.3192 67.6156C37.666 67.5672 37.666 67.5672 38.0199 67.5178C38.5199 67.4481 38.8598 67.3984 39.225 67.014C39.2923 66.7094 39.2923 66.7094 39.2813 66.3603C39.2829 66.1597 39.2829 66.1597 39.2845 65.9551C39.2826 65.7386 39.2826 65.7386 39.2807 65.5176C39.2808 65.3695 39.281 65.2213 39.2812 65.0686C39.2809 64.6747 39.2786 64.2809 39.2754 63.887C39.2741 63.6455 39.2743 63.404 39.275 63.1625C39.2765 62.6993 39.2755 62.2361 39.2737 61.7729C39.274 61.6285 39.2743 61.4841 39.2746 61.3354C39.2732 61.2017 39.2718 61.068 39.2703 60.9303C39.2697 60.8125 39.2691 60.6946 39.2685 60.5733C39.2462 60.2728 39.2462 60.2728 39.0776 60.0607C38.7717 59.8257 38.4513 59.8199 38.0829 59.7727C37.8309 59.7405 37.5789 59.7082 37.3192 59.675C37.3192 59.1191 37.3192 58.5633 37.3192 57.9906Z" fill="white"/>
<path d="M56.2657 57.9906C57.7237 57.9821 59.1817 57.9758 60.6398 57.9719C61.317 57.97 61.9942 57.9674 62.6714 57.9633C63.3264 57.9594 63.9813 57.9572 64.6363 57.9563C64.8847 57.9556 65.1331 57.9544 65.3816 57.9524C67.7718 57.9343 70.3431 58.0179 72.1817 59.901C73.2304 61.1195 73.4903 62.4737 73.4526 64.0875C73.3805 65.5381 72.822 66.7699 71.8169 67.7434C69.7027 69.4552 67.0273 69.3186 64.518 69.3117C64.2761 69.3115 64.0342 69.3113 63.7923 69.3112C63.1598 69.3107 62.5273 69.3095 61.8947 69.3082C61.2476 69.307 60.6006 69.3064 59.9535 69.3058C58.6868 69.3045 57.4202 69.3025 56.1536 69.2999C56.1536 68.7441 56.1536 68.1882 56.1536 67.6156C56.2804 67.5965 56.4073 67.5774 56.5381 67.5577C56.7042 67.5295 56.8703 67.5012 57.0364 67.4727C57.1201 67.4605 57.2038 67.4483 57.29 67.4358C57.5651 67.3926 57.5651 67.3926 57.9473 67.2546C58.1544 66.8436 58.1995 66.4934 58.1988 66.031C58.1991 65.9102 58.1995 65.7893 58.1998 65.6648C58.199 65.5356 58.1982 65.4064 58.1974 65.2732C58.1973 65.1393 58.1973 65.0054 58.1972 64.8674C58.1969 64.5847 58.196 64.3019 58.1946 64.0192C58.1926 63.5867 58.1923 63.1542 58.1923 62.7217C58.1918 62.4468 58.1911 62.1719 58.1904 61.897C58.1902 61.7677 58.1901 61.6385 58.19 61.5054C58.1893 61.3845 58.1886 61.2636 58.1878 61.1391C58.1874 61.0333 58.187 60.9274 58.1865 60.8184C58.1756 60.4643 58.1756 60.4643 58.0594 59.9156C57.4675 59.8361 56.8755 59.7567 56.2657 59.6749C56.2657 59.1191 56.2657 58.5632 56.2657 57.9906ZM62.4317 60.2765C62.4317 62.4999 62.4317 64.7232 62.4317 67.014C63.3994 67.0252 63.3994 67.0252 64.3866 67.0365C64.5881 67.0398 64.7896 67.0431 64.9973 67.0465C66.4928 67.081 66.4928 67.081 67.7989 66.3673C68.4653 65.484 68.5104 64.7926 68.5206 63.6904C68.5239 63.5764 68.5271 63.4624 68.5305 63.3449C68.5377 62.4745 68.4185 61.6104 67.8828 60.9196C67.2296 60.29 66.525 60.2414 65.6942 60.253C65.6112 60.2532 65.5281 60.2535 65.4425 60.2537C65.1349 60.255 64.8273 60.2583 64.5197 60.2615C63.8307 60.2664 63.1416 60.2714 62.4317 60.2765Z" fill="white"/>
<path d="M28.3084 57.592C28.4545 57.5925 28.6006 57.593 28.7511 57.5936C31.1642 57.6236 33.7809 57.9794 35.6306 59.8178C36.6148 60.9596 37.0451 62.3913 37.0113 63.9291C36.875 65.4506 36.3529 66.703 35.3012 67.7359C33.9864 68.8121 32.4431 69.3093 30.8169 69.5406C30.7288 69.5539 30.6408 69.5672 30.5502 69.581C27.6159 69.9456 24.0974 69.7665 21.6366 67.844C20.499 66.8111 19.937 65.5939 19.7986 64.0053C19.751 62.3736 20.2109 60.9956 21.2245 59.7802C23.0865 57.9035 25.8757 57.5804 28.3084 57.592ZM25.4356 60.8781C24.7005 62.2056 24.5265 63.7642 24.8821 65.2695C25.1228 65.9832 25.5281 66.5477 26.1398 66.9355C27.3599 67.5444 28.9848 67.6204 30.2554 67.1235C30.9621 66.7797 31.5177 66.3074 31.8232 65.5336C32.2654 64.0389 32.1861 62.4746 31.5245 61.0811C30.9507 60.3654 30.1993 59.9775 29.3199 59.889C29.0243 59.8746 28.7304 59.8699 28.4345 59.8704C28.3303 59.8706 28.226 59.8708 28.1186 59.871C27.1394 59.8898 26.121 60.056 25.4356 60.8781Z" fill="white"/>
<path d="M75.9969 57.9906C77.0689 57.9824 78.1409 57.9758 79.2129 57.9719C79.7107 57.97 80.2085 57.9674 80.7062 57.9633C81.1867 57.9594 81.6672 57.9573 82.1477 57.9563C82.3309 57.9557 82.5141 57.9544 82.6973 57.9524C82.9542 57.9498 83.2109 57.9494 83.4678 57.9496C83.6139 57.9488 83.7601 57.948 83.9106 57.9472C84.3212 57.9938 84.5269 58.0865 84.8535 58.3515C85.0789 58.6574 85.0789 58.6574 85.2994 59.0273C85.3604 59.1285 85.3604 59.1285 85.4227 59.2318C85.5564 59.454 85.6884 59.6772 85.8205 59.9005C85.9141 60.0568 86.0079 60.2129 86.1018 60.3689C86.2976 60.6945 86.4928 61.0204 86.6876 61.3466C87.2457 62.2797 87.8146 63.2053 88.382 64.1318C88.4687 64.2734 88.5554 64.4149 88.6421 64.5565C88.6834 64.6241 88.7248 64.6916 88.7674 64.7612C89.0067 65.1526 89.243 65.5458 89.4767 65.9411C89.5281 66.0269 89.5795 66.1126 89.6324 66.201C89.7591 66.4129 89.8845 66.6258 90.0097 66.8387C90.4245 67.3834 90.934 67.4154 91.5591 67.5103C91.788 67.545 92.0169 67.5798 92.2528 67.6156C92.2528 68.1714 92.2528 68.7273 92.2528 69.3C89.2561 69.3 86.2594 69.3 83.1719 69.3C83.1719 68.7441 83.1719 68.1883 83.1719 67.6156C83.6755 67.5275 83.6755 67.5275 84.1791 67.4393C84.4459 67.3885 84.7043 67.3302 84.9657 67.2546C84.8285 66.7678 84.6923 66.3389 84.4051 65.9312C84.1234 65.8394 84.1234 65.8394 83.7977 65.8515C83.6735 65.8492 83.5493 65.8469 83.4213 65.8445C83.22 65.8458 83.22 65.8458 83.0147 65.8471C82.8769 65.8462 82.7391 65.8454 82.5971 65.8445C82.2306 65.8433 81.8643 65.8451 81.4979 65.8478C81.1258 65.8489 80.7537 65.8428 80.3817 65.8384C80.0985 65.8383 79.8154 65.8387 79.5323 65.8396C79.3983 65.8377 79.2644 65.8359 79.1264 65.834C78.78 65.8392 78.4651 65.8503 78.127 65.9312C77.7945 66.301 77.6916 66.4917 77.6505 66.999C77.6598 67.0833 77.669 67.1677 77.6785 67.2546C77.835 67.2923 77.9915 67.3299 78.148 67.3674C78.2351 67.3884 78.3223 67.4093 78.4121 67.4309C78.6901 67.4959 78.9691 67.5557 79.2481 67.6156C79.2481 68.1714 79.2481 68.7273 79.2481 69.3C77.0283 69.3 74.8085 69.3 72.5215 69.3C72.5215 68.7441 72.5215 68.1883 72.5215 67.6156C72.8865 67.5607 73.2514 67.5059 73.6163 67.4511C74.0293 67.3644 74.3143 67.2899 74.5787 66.9262C74.6234 66.8428 74.6681 66.7593 74.7142 66.6733C74.766 66.5785 74.8178 66.4836 74.8711 66.3859C74.9532 66.2316 74.9532 66.2316 75.037 66.0741C75.1564 65.855 75.2759 65.636 75.3956 65.4171C75.4574 65.3036 75.5192 65.1901 75.5828 65.0732C75.8904 64.5142 76.2099 63.9633 76.5294 63.4122C76.6206 63.2538 76.6206 63.2538 76.7136 63.0922C76.9798 62.6302 77.2476 62.1701 77.5253 61.716C77.5684 61.6445 77.6115 61.5729 77.6559 61.4991C77.767 61.3151 77.8799 61.1322 77.993 60.9495C78.1522 60.6438 78.1522 60.6438 78.1068 60.3028C78.0399 60.015 78.0399 60.015 77.7907 59.9156C77.487 59.8684 77.1844 59.8259 76.8798 59.7877C76.7952 59.7768 76.7107 59.7659 76.6236 59.7546C76.4147 59.7277 76.2058 59.7013 75.9969 59.675C75.9969 59.1191 75.9969 58.5633 75.9969 57.9906ZM81.0418 60.6375C80.862 60.8962 80.862 60.8962 80.6805 61.2301C80.5762 61.4149 80.5762 61.4149 80.4697 61.6035C80.361 61.799 80.361 61.799 80.2501 61.9985C80.1771 62.1274 80.1042 62.2564 80.0291 62.3893C79.6456 63.0524 79.6456 63.0524 79.3602 63.7656C80.5811 63.7656 81.8019 63.7656 83.0598 63.7656C82.8957 63.3254 82.7665 63.0237 82.5273 62.6442C82.4683 62.5501 82.4094 62.4559 82.3486 62.359C82.2873 62.2623 82.2261 62.1657 82.1629 62.0662C82.071 61.9198 82.071 61.9198 81.9772 61.7706C81.8636 61.5897 81.7498 61.4091 81.6357 61.2286C81.5116 61.0322 81.3887 60.8349 81.266 60.6375C81.1921 60.6375 81.1181 60.6375 81.0418 60.6375Z" fill="white"/>
</g>
<defs>
<clipPath id="clip0_912_4940">
<rect width="92.4" height="77" fill="white" transform="translate(0.200012 -3.05176e-05)"/>
</clipPath>
</defs>
</svg>
