<svg width="81" height="82" viewBox="0 0 81 82" fill="none" xmlns="http://www.w3.org/2000/svg">
<path d="M34.5466 8.79411C35.4945 8.7113 36.1451 8.67219 36.9296 9.258C37.4134 9.79036 37.8326 10.3396 38.2488 10.9271C38.5383 11.3108 38.8278 11.6944 39.1175 12.0779C39.323 12.3581 39.323 12.3581 39.5327 12.644C40.1397 13.4514 40.7943 14.2094 41.4563 14.9712C41.5934 14.8021 41.7306 14.633 41.8719 14.4588C42.2705 13.9674 42.6691 13.4761 43.0678 12.9848C43.4983 12.4542 43.928 11.9228 44.3571 11.391C44.5568 11.1437 44.7566 10.8964 44.9624 10.6416C45.2382 10.2996 45.2382 10.2996 45.5196 9.95073C46.3941 8.89333 46.3941 8.89333 46.9858 8.8166C48.6493 8.83329 50.2424 9.02191 51.8804 9.30942C52.1439 9.35529 52.4075 9.40117 52.679 9.44843C56.954 10.218 60.8593 11.4759 64.8516 13.195C63.9102 15.8572 61.3052 17.2405 58.9399 18.5079C58.311 18.7775 58.311 18.7775 57.5563 18.7775C57.4736 18.5434 57.4736 18.5434 57.3892 18.3047C57.3094 18.0996 57.2297 17.8945 57.1475 17.6832C57.0716 17.48 56.9957 17.2769 56.9175 17.0676C56.3849 16.2359 55.9727 16.07 55.0406 15.7325C53.9657 15.5368 52.8879 15.4175 51.8018 15.3043C51.2576 15.245 50.7135 15.1856 50.1694 15.126C49.6968 15.0744 49.2242 15.0228 48.7516 14.9712C48.7208 15.1632 48.6901 15.3552 48.6584 15.5531C47.4161 23.2725 46.0389 30.968 44.6686 38.6651C44.3444 40.4859 44.021 42.3069 43.6975 44.1278C43.035 47.8578 42.3717 51.5877 41.7078 55.3175C41.5418 55.3175 41.3758 55.3175 41.2047 55.3175C40.6612 53.0342 40.1983 50.7456 39.787 48.4346C39.725 48.0895 39.6629 47.7444 39.6008 47.3993C39.4343 46.4732 39.2688 45.5468 39.1035 44.6204C38.965 43.8441 38.826 43.0678 38.687 42.2915C38.3593 40.4604 38.0324 38.6292 37.7061 36.7979C37.3701 34.9127 37.0324 33.0278 36.6939 31.1431C36.4023 29.5188 36.1118 27.8942 35.8222 26.2696C35.6497 25.3017 35.4768 24.334 35.3026 23.3665C35.1391 22.4582 34.9772 21.5497 34.8163 20.6409C34.7291 20.1505 34.6404 19.6603 34.5517 19.1702C34.302 17.7517 34.0857 16.4127 34.1609 14.9712C33.3272 15.0353 32.4942 15.1058 31.661 15.1774C31.4281 15.1952 31.1951 15.213 30.955 15.2314C29.4094 15.3682 28.0623 15.6845 26.6141 16.24C26.365 16.3237 26.116 16.4074 25.8594 16.4937C25.6021 17.0259 25.6021 17.0259 25.4349 17.6514C25.3716 17.8611 25.3084 18.0708 25.2433 18.2868C25.1975 18.4487 25.1518 18.6106 25.1047 18.7775C22.5086 18.4416 19.8964 16.2011 18.2025 14.2734C17.8094 13.7025 17.8094 13.7025 17.8094 13.195C23.242 10.8536 28.7183 9.59082 34.5466 8.79411Z" fill="white"/>
<path d="M41.2519 3.94893C41.6736 3.95009 41.6736 3.95009 42.1037 3.95127C46.3319 3.96842 50.3954 4.15409 54.5376 5.07495C54.7981 5.12933 55.0585 5.18371 55.3269 5.23974C59.2722 6.07049 63.4904 7.05277 67.1157 8.8812C66.3885 11.3158 66.3885 11.3158 65.6063 12.1799C64.63 12.0086 63.737 11.7281 62.8048 11.3909C48.5746 6.35051 32.4922 5.88469 18.4462 11.9807C17.7516 12.198 17.4569 12.2423 16.8032 11.9262C16.476 11.502 16.476 11.502 16.2215 10.9746C16.0906 10.7175 16.0906 10.7175 15.9571 10.4552C15.7593 9.7647 15.8918 9.31949 16.0485 8.62745C19.3921 7.43415 22.7328 6.29935 26.1896 5.48729C26.4284 5.43001 26.6672 5.37273 26.9132 5.31371C31.6705 4.24405 36.3896 3.92049 41.2519 3.94893Z" fill="white"/>
<path d="M37.1797 69.5275C39.9192 69.5275 42.6588 69.5275 45.4813 69.5275C45.2297 70.7962 45.2297 70.7962 44.6146 71.2532C43.4571 71.6471 42.4472 71.6409 41.2362 71.605C40.9044 71.5999 40.9044 71.5999 40.566 71.5946C40.0241 71.5857 39.4824 71.5721 38.9407 71.5575C38.9407 71.8924 38.9407 72.2274 38.9407 72.5725C41.0991 72.5725 43.2575 72.5725 45.4813 72.5725C45.4813 74.0797 45.4813 75.587 45.4813 77.14C42.6588 77.14 39.8362 77.14 36.9282 77.14C37.4717 76.0434 37.603 75.8215 38.6891 75.3637C39.5564 75.2747 40.4128 75.2919 41.2833 75.3161C41.6348 75.3213 41.6348 75.3213 41.9933 75.3265C42.5691 75.3355 43.1447 75.348 43.7203 75.3637C43.7203 75.0288 43.7203 74.6938 43.7203 74.3487C41.5619 74.3487 39.4035 74.3487 37.1797 74.3487C37.1797 72.7577 37.1797 71.1667 37.1797 69.5275Z" fill="white"/>
<path d="M12.275 69.5275C15.3466 69.5275 18.4182 69.5275 21.5828 69.5275C21.3313 70.7962 21.3313 70.7962 20.8281 71.2561C20.0735 71.5575 20.0735 71.5575 17.8094 71.5575C17.8094 73.3997 17.8094 75.2419 17.8094 77.14C17.2283 77.14 16.6472 77.14 16.0485 77.14C16.0485 75.2977 16.0485 73.4555 16.0485 71.5575C15.2183 71.5575 14.3881 71.5575 13.5328 71.5575C12.7467 71.1134 12.7467 71.1134 12.275 70.5425C12.275 70.2075 12.275 69.8726 12.275 69.5275Z" fill="white"/>
<path d="M60.0719 72.5724C62.8114 72.5724 65.5509 72.5724 68.3735 72.5724C68.3735 74.0797 68.3735 75.587 68.3735 77.1399C67.7924 77.1399 67.2112 77.1399 66.6125 77.1399C66.6125 76.2188 66.6125 75.2977 66.6125 74.3487C65.0352 74.3487 63.4579 74.3487 61.8328 74.3487C61.8328 75.2698 61.8328 76.1909 61.8328 77.1399C61.2517 77.1399 60.6706 77.1399 60.0719 77.1399C60.0719 75.6327 60.0719 74.1254 60.0719 72.5724Z" fill="white"/>
<path d="M49.2547 69.5275C49.8358 69.5275 50.4169 69.5275 51.0156 69.5275C51.0156 71.4534 51.0156 73.3794 51.0156 75.3637C53.091 75.3637 55.1664 75.3637 57.3047 75.3637C57.0531 76.6325 57.0531 76.6325 56.55 77.14C55.8232 77.1976 55.8232 77.1976 54.905 77.1895C54.6101 77.1883 54.3151 77.187 54.0112 77.1857C53.6349 77.1811 53.2586 77.1764 52.8709 77.1717C51.6776 77.1612 50.4842 77.1508 49.2547 77.14C49.2547 74.6278 49.2547 72.1157 49.2547 69.5275Z" fill="white"/>
<path d="M24.8531 69.5275C27.6757 69.5275 30.4982 69.5275 33.4063 69.5275C33.1547 70.7962 33.1547 70.7962 32.683 71.2502C31.5035 71.7112 30.3833 71.6675 29.1297 71.6526C28.7581 71.657 28.7581 71.657 28.379 71.6615C25.9937 71.6518 25.9937 71.6518 25.1047 70.7962C25.0217 70.3775 24.9387 69.9588 24.8531 69.5275Z" fill="white"/>
<path d="M59.8204 69.5275C62.6429 69.5275 65.4654 69.5275 68.3735 69.5275C68.1219 70.7962 68.1219 70.7962 67.6856 71.2498C67.0064 71.6164 66.5639 71.6557 65.796 71.6586C65.4178 71.66 65.4178 71.66 65.0319 71.6615C64.7701 71.6586 64.5082 71.6557 64.2384 71.6526C63.9776 71.6556 63.7167 71.6585 63.4479 71.6615C60.9442 71.6518 60.9442 71.6518 60.0719 70.7962C59.9889 70.3775 59.9059 69.9588 59.8204 69.5275Z" fill="white"/>
<path d="M24.8531 75.3637C27.6757 75.3637 30.4982 75.3637 33.4063 75.3637C33.1547 76.6324 33.1547 76.6324 32.6516 77.1399C31.4872 77.2572 30.3149 77.2221 29.1454 77.2192C28.6544 77.2254 28.6544 77.2254 28.1534 77.2316C27.6838 77.2319 27.6838 77.2319 27.2047 77.2321C26.9167 77.2329 26.6288 77.2336 26.3321 77.2344C25.6078 77.1399 25.6078 77.1399 25.1307 76.817C24.8531 76.3787 24.8531 76.3787 24.8531 75.3637Z" fill="white"/>
<path d="M24.8531 72.5724C27.6757 72.5724 30.4982 72.5724 33.4063 72.5724C33.0879 73.8571 33.0879 73.8571 32.4 74.3487C31.3228 74.5135 30.2336 74.4662 29.1454 74.4597C28.8453 74.4648 28.5452 74.4699 28.236 74.4751C27.9475 74.4749 27.6591 74.4748 27.3619 74.4746C27.098 74.4751 26.834 74.4755 26.5621 74.476C25.6866 74.3174 25.3835 74.0429 24.8531 73.3337C24.8531 73.0825 24.8531 72.8313 24.8531 72.5724Z" fill="white"/>
</svg>
